<?xml version="1.0" encoding="UTF-8" standalone="no"?>
<svg
   width="959"
   height="593"
   version="1.1"
   id="svg436"
   sodipodi:docname="ip_highway.svg"
   inkscape:version="1.2.2 (b0a8486541, 2022-12-01)"
   inkscape:export-filename="ip_highway.webp"
   inkscape:export-xdpi="96"
   inkscape:export-ydpi="96"
   xmlns:inkscape="http://www.inkscape.org/namespaces/inkscape"
   xmlns:sodipodi="http://sodipodi.sourceforge.net/DTD/sodipodi-0.dtd"
   xmlns="http://www.w3.org/2000/svg"
   xmlns:svg="http://www.w3.org/2000/svg">
  <sodipodi:namedview
     id="namedview438"
     pagecolor="#ffffff"
     bordercolor="#000000"
     borderopacity="0.25"
     inkscape:showpageshadow="2"
     inkscape:pageopacity="0.0"
     inkscape:pagecheckerboard="0"
     inkscape:deskcolor="#d1d1d1"
     showgrid="false"
     inkscape:zoom="1.6868"
     inkscape:cx="434.55062"
     inkscape:cy="288.71235"
     inkscape:window-width="1920"
     inkscape:window-height="1123"
     inkscape:window-x="0"
     inkscape:window-y="40"
     inkscape:window-maximized="1"
     inkscape:current-layer="svg436" />
  <title
     id="title2">Blank map of the United States, territories not included</title>
  <defs
     id="defs6">
    <marker
       style="overflow:visible"
       id="Dot"
       refX="0"
       refY="0"
       orient="auto"
       inkscape:stockid="Dot"
       markerWidth="4"
       markerHeight="4"
       viewBox="0 0 5.6666667 5.6666667"
       inkscape:isstock="true"
       inkscape:collect="always"
       preserveAspectRatio="xMidYMid">
      <path
         transform="scale(0.5)"
         style="fill:context-stroke;fill-rule:evenodd;stroke:context-stroke;stroke-width:1pt"
         d="M 5,0 C 5,2.76 2.76,5 0,5 -2.76,5 -5,2.76 -5,0 c 0,-2.76 2.3,-5 5,-5 2.76,0 5,2.24 5,5 z"
         id="Dot1"
         sodipodi:nodetypes="sssss" />
    </marker>
    <marker
       style="overflow:visible"
       id="marker3693"
       refX="0"
       refY="0"
       orient="auto-start-reverse"
       inkscape:stockid="Arrow1"
       markerWidth="4.0606604"
       markerHeight="6.7071066"
       viewBox="0 0 4.0606602 6.7071068"
       inkscape:isstock="true"
       inkscape:collect="always"
       preserveAspectRatio="xMidYMid">
      <path
         style="fill:none;stroke:context-stroke;stroke-width:1;stroke-linecap:butt"
         d="M 3,-3 0,0 3,3"
         id="path3691"
         transform="rotate(180,0.125,0)"
         sodipodi:nodetypes="ccc" />
    </marker>
    <marker
       style="overflow:visible"
       id="Arrow1"
       refX="0"
       refY="0"
       orient="auto-start-reverse"
       inkscape:stockid="Arrow1"
       markerWidth="4.0606604"
       markerHeight="6.7071066"
       viewBox="0 0 4.0606602 6.7071068"
       inkscape:isstock="true"
       inkscape:collect="always"
       preserveAspectRatio="xMidYMid">
      <path
         style="fill:none;stroke:context-stroke;stroke-width:1;stroke-linecap:butt"
         d="M 3,-3 0,0 3,3"
         id="path5057"
         transform="rotate(180,0.125,0)"
         sodipodi:nodetypes="ccc" />
    </marker>
    <rect
       x="359.88619"
       y="167.46193"
       width="13.593968"
       height="185.41287"
       id="rect3415" />
    <rect
       x="469.94441"
       y="302.37569"
       width="102.50075"
       height="15.512112"
       id="rect2195" />
    <marker
       style="overflow:visible"
       id="TriangleStart"
       refX="0"
       refY="0"
       orient="auto-start-reverse"
       inkscape:stockid="TriangleStart"
       markerWidth="5.3244081"
       markerHeight="6.155385"
       viewBox="0 0 5.3244081 6.1553851"
       inkscape:isstock="true"
       inkscape:collect="always"
       preserveAspectRatio="xMidYMid">
      <path
         transform="scale(0.5)"
         style="fill:context-stroke;fill-rule:evenodd;stroke:context-stroke;stroke-width:1pt"
         d="M 5.77,0 -2.88,5 V -5 Z"
         id="path135" />
    </marker>
    <marker
       style="overflow:visible"
       id="RoundedArrow"
       refX="0"
       refY="0"
       orient="auto-start-reverse"
       inkscape:stockid="RoundedArrow"
       markerWidth="6.1347523"
       markerHeight="5.9304953"
       viewBox="0 0 6.1347524 5.9304951"
       inkscape:isstock="true"
       inkscape:collect="always"
       preserveAspectRatio="xMidYMid">
      <path
         transform="scale(0.7)"
         d="m -0.21114562,-4.1055728 6.42229122,3.21114561 a 1,1 90 0 1 0,1.78885438 L -0.21114562,4.1055728 A 1.236068,1.236068 31.717474 0 1 -2,3 v -6 a 1.236068,1.236068 148.28253 0 1 1.78885438,-1.1055728 z"
         style="fill:context-stroke;fill-rule:evenodd;stroke:none"
         id="path1367" />
    </marker>
    <style
       type="text/css"
       id="style4">
.state {fill:#D0D0D0}                        /* default color for all states not specified below */
.borders {stroke:#FFFFFF; stroke-width:1}    /* color and width of borders between states */
.dccircle {display:yes}                      /* set display to yes to show the circle for the District of Columbia, or none to hide it */
.separator1 {stroke:#B0B0B0; stroke-width:2} /* color and width of lines around Alaska and Hawaii */

/* Individual states can be colored as follows:
.ks,.mt,.pa {fill:#0000FF}
.ca,.de {fill:#FF0000}
In this example, Kansas, Montana and Pennsylvania are colored blue, and California and Delaware are colored red.
Place this code in the empty space below. */



</style>
    <marker
       style="overflow:visible"
       id="Dot-3"
       refX="0"
       refY="0"
       orient="auto"
       inkscape:stockid="Dot"
       markerWidth="4"
       markerHeight="4"
       viewBox="0 0 5.6666667 5.6666667"
       inkscape:isstock="true"
       inkscape:collect="always"
       preserveAspectRatio="xMidYMid">
      <path
         transform="scale(0.5)"
         style="fill:context-stroke;fill-rule:evenodd;stroke:context-stroke;stroke-width:1pt"
         d="M 5,0 C 5,2.76 2.76,5 0,5 -2.76,5 -5,2.76 -5,0 c 0,-2.76 2.3,-5 5,-5 2.76,0 5,2.24 5,5 z"
         id="Dot1-6"
         sodipodi:nodetypes="sssss" />
    </marker>
  </defs>
  <g
     class="state"
     id="g212">
    <path
       class="al"
       d="m 643,467.4 .4,-7.3 -.9,-1.2 -1.7,-.7 -2.5,-2.8 .5,-2.9 48.8,-5.1 -.7,-2.2 -1.5,-1.5 -.5,-1.4 .6,-6.3 -2.4,-5.7 .5,-2.6 .3,-3.7 2.2,-3.8 -.2,-1.1 -1.7,-1 v -3.2 l -1.8,-1.9 -2.9,-6.1 -12.9,-45.8 -45.7,4 1.3,2 -1.3,67 4.4,33.2 .9,-.5 1.3,.1 .6,.4 .8,-.1 2,-3.8 v -2.3 l 1.1,-1.1 1.4,.5 3.4,6.4 v .9 l -3.3,2.2 3.5,-.4 4.9,-1.6 z"
       id="path10">
      <title
         id="title8">Alabama</title>
    </path>
    <!-- The scale of Alaska is 42% that of the contiguous United States, so its area is reduced to about 17.6%. The Islands of Four Mountains, Andreanof Islands, Rat Islands and Near Islands are not shown. -->
    <path
       class="az"
       d="m 139.6,387.6 3,-2.2 .8,-2.4 -1,-1.6 -1.8,-.2 -1.1,-1.6 1.1,-6.9 1.6,-.3 2.4,-3.2 1.6,-7 2.4,-3.6 4.8,-1.7 1.3,-1.3 -.4,-1.9 -2.3,-2.5 -1.2,-5.8 -1.4,-1.8 -1.3,-3.4 .9,-2.1 1.4,-3 .5,-2.9 -.5,-4.9 1,-13.6 3.5,-.6 3.7,1.4 1.2,2.7 h 2 l 2.4,-2.9 3.4,-17.5 46.2,8.2 40,6 -17.4,124.1 -37.3,-5.4 -64.2,-37.5 .5,-2.9 2,-1.8 z"
       id="path18">
      <title
         id="title16">Arizona</title>
    </path>
    <path
       class="ar"
       d="m 584.2,367 .9,-2.2 1.2,.5 .7,-1 -.8,-.7 .3,-1.5 -1.1,-.9 .6,-1 -.1,-1.5 -1.1,-.1 .8,-.8 1.3,.8 .3,-1.4 -.4,-1.1 .1,-.7 2,.6 -.4,-1.5 1.6,-1.3 -.5,-.9 -1.1,.1 -.6,-.9 .9,-.9 1.6,-.2 .5,-.8 1.4,-.2 -.1,-.8 -.9,-.9 v -.5 h 1.5 l .4,-.7 -1.4,-1 -.1,-.6 -11.2,.8 2.8,-5.1 1.7,-1.5 v -2.2 l -1.6,-2.5 -39.8,2 -39.1,.7 4.1,24.4 -.7,39 2.6,2.3 2.8,-1.3 3.2,.8 .2,11.9 52.3,-1.3 1.2,-1.5 .5,-3 -1.5,-2.3 -.5,-2.2 .9,-.7 v -.8 l -1.7,-1.1 -.1,-.7 1.6,-.9 -1.2,-1.1 1.7,-7.1 3.4,-1.6 v -.8 l -1.1,-1.4 2.9,-5.4 h 1.9 l 1.5,-1.2 -.3,-5.2 3.1,-4.5 1.8,-.6 -.5,-3.1 z"
       id="path22">
      <title
         id="title20">Arkansas</title>
    </path>
    <path
       class="ca"
       d="m 69.4,365.6 3.4,5.2 -1.4,.1 -1.8,-1.9 z m 1.9,-9.8 1.8,4.1 2.6,1 .7,-.6 -1.3,-2.5 -2.6,-2.4 z m -19.9,-19 v 2.4 l 2,1.2 4.4,-.2 1,-1 -3.1,-.2 z m -5.9,.1 3.3,.5 1.4,2.2 h -3.8 z m 47.9,45.5 -1,-3 .2,-3 -.4,-7.9 -1.8,-4.8 -1.2,-1.4 -.6,-1.5 -7,-8.6 -3.6,.1 -2,-1.9 1.1,-1.8 -.7,-3.7 -2.2,-1.2 -3.9,-.6 -2.8,-1.3 -1.5,-1.9 -4.5,-6.6 -2.7,-2.2 -3.7,-.5 -3.1,-2.3 -4.7,-1.5 -2.8,-.3 -2.5,-2.5 .2,-2.8 .8,-4.8 1.8,-5.1 -1.4,-1.6 -4,-9.4 -2.7,-3.7 -.4,-3 -1.6,-2.3 .2,-2.5 -2,-5 -2.9,-2.7 .6,-7.1 2.4,-.8 1.8,-3.1 -.4,-3.2 -1,-.9 h -2.5 l -2.5,-3.3 -1.5,-3.5 v -7.5 l 1.2,-4.2 .2,-2.1 2.5,.2 -.1,1.6 -.8,.7 v 2.5 l 3.7,3.2 v -4.7 l -1.4,-3.4 .5,-1.1 -1,-1.7 2.8,-1.5 -1.9,-3 -1.4,.5 -1.5,3.8 .5,1.3 -.8,1 -.9,-.1 -5.4,-6.1 .7,-5.6 -1.1,-3.9 -6.5,-12.8 .8,-10.7 2.3,-3.6 .2,-6.4 -5.5,-11.1 .3,-5.2 6.9,-7.5 1.7,-2.4 -.1,-1.4 4,-9.2 .1,-8.4 .9,-2.5 66.1,18.6 -16.4,63.1 1.1,3.5 70.4,105 -.9,2.1 1.3,3.4 1.4,1.8 1.2,5.8 2.3,2.5 .4,1.9 -1.3,1.3 -4.8,1.7 -2.4,3.6 -1.6,7 -2.4,3.2 -1.6,.3 -1.1,6.9 1.1,1.6 1.8,.2 1,1.6 -.8,2.4 -3,2.2 -2.2,-.1 z"
       id="path26">
      <title
         id="title24">California</title>
    </path>
    <path
       class="co"
       d="m 374.6,323.3 -16.5,-1 -51.7,-4.8 -52.6,-6.5 11.5,-88.3 44.9,5.7 37.5,3.4 33.1,2.4 -1.4,22.1 z"
       id="path30">
      <title
         id="title28">Colorado</title>
    </path>
    <path
       class="ct"
       d="m 873.5,178.9 .4,-1.1 -3.2,-12.3 -.1,-.3 -14.9,3.4 v .7 l -.9,.3 -.5,-.7 -10.5,2.4 2.8,16.3 1.8,1.5 -3.5,3.4 1.7,2.2 5.4,-4.5 1.7,-1.3 h .8 l 2.4,-3.1 1.4,.1 2.9,-1.1 h 2.1 l 5.3,-2.7 2.8,-.9 1,-1 1.5,.5 z"
       id="path34">
      <title
         id="title32">Connecticut</title>
    </path>
    <path
       class="de"
       d="m 822.2,226.6 -1.6,.3 -1.5,1.1 -1.2,2.1 7.6,27.1 10.9,-2.3 -2.2,-7.6 -1.1,.5 -3.3,-2.6 -.5,-1.7 -1.8,-1 -.2,-3.7 -2.1,-2.2 -1.1,-.8 -1.2,-1.1 -.4,-3.2 .3,-2.1 1,-2.2 z"
       id="path38">
      <title
         id="title36">Delaware</title>
    </path>
    <path
       class="fl"
       d="m 751.7,445.1 -4,-.7 -1.7,-.9 -2.2,1.4 v 2.5 l 1.4,2.1 -.5,4.3 -2.1,.6 -1,-1.1 -.6,-3.2 -50.1,3.3 -3.3,-6 -48.8,5.1 -.5,2.9 2.5,2.8 1.7,.7 .9,1.2 -.4,7.3 -1.1,.6 .5,.4 1,-.3 .7,-.8 10.5,-2.7 9.2,-.5 8.1,1.9 8.5,5 2.4,.8 2.2,2 -.1,2.7 h 2.4 l 1.9,-1 2.5,.1 2,-.8 2.9,-2 3.1,-2.9 1.1,-.4 .6,.5 h 1.4 l .5,-.8 -.5,-1.2 -.6,-.6 .2,-.8 2,-1.1 5,-.4 .8,1 1,.1 2.3,1 3,1.8 1.2,1.7 1.1,1.2 2.8,1.4 v 2.4 l 2.8,1.9 1,.1 1.6,1.4 .7,1.6 1,.2 .8,2.1 .7,.6 1,-1.1 2.9,.1 .5,1.4 1.1,.9 v 1.3 l 2.9,2.2 .2,9.6 -1.8,5.8 1,1.2 -.2,3.4 -.8,1.4 .7,1.2 2.3,2.3 .3,1.5 .8,1 -.4,-1.9 1.3,-.6 .8,-3.6 -3,-1.2 .1,-.6 2.6,-.4 .9,2.6 1.1,.6 .1,-2 1.1,.3 .6,.8 -.1,.7 -2.9,4.2 -.2,1.1 -1.7,1.9 v 1.1 l 3.7,3.8 5.3,7.9 1.8,2.1 v 1.8 l 2.8,4.6 2.3,.6 .7,-1.2 -2.1,.3 -3,-4.5 .2,-1.4 1.5,-.8 v -1.5 l -.6,-1.3 .9,-.9 .4,.9 .7,.5 v 4 l -1.2,-.6 -.8,.9 1.4,1.6 1,2.6 1.2,-.6 2.3,1.2 2.1,2.2 1.6,5.1 3.1,4.8 .8,-1.3 2.8,-.5 3.2,1.3 .3,1.7 3.3,3.8 .1,1.1 2.2,2.7 -.7,.5 v 2.7 l 2.7,1.4 h 1.5 l 2.7,-1.8 1.5,.3 1.1,.4 2.3,-1.7 .2,-.7 1.2,.3 2.4,-1.7 1.3,-2.3 -.7,-3.2 -.2,-1.3 1.1,-4 .6,-.2 .6,1.6 .8,-1.8 -.8,-7.2 -.4,-10.5 -1,-6.8 -.7,-1.7 -6.6,-11.1 -5.2,-9.1 -2.2,-3.3 -1.3,-3.6 -.2,-3.4 .9,-.3 v -.9 l -1.1,-2.2 -4,-4 -7.6,-9.7 -5.7,-10.4 -4.3,-10.7 -.6,-3.7 -1.2,-1 -.5,-3.8 z m 9.2,134.5 1.7,-.1 -.7,-1 z m 7.3,-1.1 v -.7 l 1.6,-.2 3.7,-3.3 1.5,-.6 2.4,-.9 .3,1.3 1.7,.8 -2.6,1.2 h -2.4 l -3.9,2.5 z m 17.2,-7.6 -3,1.4 -1,1.3 1.1,.1 z m 3.8,-2.9 -1.1,.3 -1.4,2 1.1,-.2 1.5,-1.6 z m 8.3,-15.7 -1.7,5.6 -.8,1 -1,2.6 -1.2,1.6 -.7,1.7 -1.9,2.2 v .9 l 2.7,-2.8 2.4,-3.5 .6,-2 2.1,-4.9 z"
       id="path42">
      <title
         id="title40">Florida</title>
    </path>
    <path
       class="ga"
       d="m 761.8,414.1 v 1.4 l -4.2,6.2 -1.2,.2 1.5,.5 v 2 l -.9,1.1 -.6,6 -2.3,6.2 .5,2 .7,5.1 -3.6,.3 -4,-.7 -1.7,-.9 -2.2,1.4 v 2.5 l 1.4,2.1 -.5,4.3 -2.1,.6 -1,-1.1 -.6,-3.2 -50.1,3.3 -3.3,-6 -.7,-2.2 -1.5,-1.5 -.5,-1.4 .6,-6.3 -2.4,-5.7 .5,-2.6 .3,-3.7 2.2,-3.8 -.2,-1.1 -1.7,-1 v -3.2 l -1.8,-1.9 -2.9,-6.1 -12.9,-45.8 22.9,-2.9 21.4,-3 -.1,1.9 -1.9,1 -1.4,3.2 .2,1.3 6.1,3.8 2.6,-.3 3.1,4 .4,1.7 4.2,5.1 2.6,1.7 1.4,.2 2.2,1.6 1.1,2.2 2,1.6 1.8,.5 2.7,2.7 .1,1.4 2.6,2.8 5,2.3 3.6,6.7 .3,2.7 3.9,2.1 2.5,4.8 .8,3.1 4.2,.4 z"
       id="path46">
      <title
         id="title44">Georgia</title>
    </path>
    <!-- Hawaii is shown in the same scale as the contiguous United States. The Northwestern Hawaiian Islands are not shown. -->
    <path
       class="id"
       d="m 165.3,183.1 -24.4,-5.4 8.5,-37.3 2.9,-5.8 .4,-2.1 .8,-.9 -.9,-2 -2.9,-1.2 .2,-4.2 4,-5.8 2.5,-.8 1.6,-2.3 -.1,-1.6 1.8,-1.6 3.2,-5.5 4.2,-4.8 -.5,-3.2 -3.5,-3.1 -1.6,-3.6 1.1,-4.3 -.7,-4 12.7,-56.1 14.2,3 -4.8,22 3.7,7.4 -1.6,4.8 3.6,4.8 1.9,.7 3.9,8.3 v 2.1 l 2.3,3 h .9 l 1.4,2.1 h 3.2 v 1.6 l -7.1,17 -.5,4.1 1.4,.5 1.6,2.6 2.8,-1.4 3.6,-2.4 1.9,1.9 .5,2.5 -.5,3.2 2.5,9.7 2.6,3.5 2.3,1.4 .4,3 v 4.1 l 2.3,2.3 1.6,-2.3 6.9,1.6 2.1,-1.2 9,1.7 2.8,-3.3 1.8,-.6 1.2,1.8 1.6,4.1 .9,.1 -8.5,54.8 -47.9,-8.2 z"
       id="path54">
      <title
         id="title52">Idaho</title>
    </path>
    <path
       class="il"
       d="m 623.5,265.9 -1,5.2 v 2 l 2.4,3.5 v .7 l -.3,.9 .9,1.9 -.3,2.4 -1.6,1.8 -1.3,4.2 -3.8,5.3 -.1,7 h -1 l .9,1.9 v .9 l -2.2,2.7 .1,1.1 1.5,2.2 -.1,.9 -3.7,.6 -.6,1.2 -1.2,-.6 -1,.5 -.4,3.3 1.7,1.8 -.4,2.4 -1.5,.3 -6.9,-3 -4,3.7 .3,1.8 h -2.8 l -1.4,-1.5 -1.8,-3.8 v -1.9 l .8,-.6 .1,-1.3 -1.7,-1.9 -.9,-2.5 -2.7,-4.1 -4.8,-1.3 -7.4,-7.1 -.4,-2.4 2.8,-7.6 -.4,-1.9 1.2,-1.1 v -1.3 l -2.8,-1.5 -3,-.7 -3.4,1.2 -1.3,-2.3 .6,-1.9 -.7,-2.4 -8.6,-8.4 -2.2,-1.5 -2.5,-5.9 -1.2,-5.4 1.4,-3.7 .7,-.7 .1,-2.3 -.7,-.9 1,-1.5 1.8,-.6 .9,-.3 1,-1.2 v -2.4 l 1.7,-2.4 .5,-.5 .1,-3.5 -.9,-1.4 -1,-.3 -1.1,-1.6 1,-4 3,-.8 h 2.4 l 4.2,-1.8 1.7,-2.2 .1,-2.4 1.1,-1.3 1.3,-3.2 -.1,-2.6 -2.8,-3.5 h -1.2 l -.9,-1.1 .2,-1.6 -1.7,-1.7 -2.5,-1.3 .5,-.6 45.9,-2.8 .1,4.6 3.4,4.6 1.2,4.1 1.6,3.2 z"
       id="path58">
      <title
         id="title56">Illinois</title>
    </path>
    <path
       class="in"
       d="m 629.2,214.8 -5.1,2.3 -4.7,-1.4 4.1,50.2 -1,5.2 v 2 l 2.4,3.5 v .7 l -.3,.9 .9,1.9 -.3,2.4 -1.6,1.8 -1.3,4.2 -3.8,5.3 -.1,7 h -1 l .9,1.9 1.1,.8 .6,-1 -.7,-1.7 4.6,-.5 .2,1.2 1.1,.2 .4,-.9 -.6,-1.3 .3,-.8 1.3,.8 1.7,-.4 1.7,.6 3.4,2.1 1.8,-2.8 3.5,-2.2 3,3.3 1.6,-2.1 .3,-2.7 3.8,-2.3 .2,1.3 1.9,1.2 3,-.2 1.2,-.7 .1,-3.4 2.5,-3.7 4.6,-4.4 -.1,-1.7 1.2,-3.8 2.2,1 6.7,-4.5 -.4,-1.7 -1.5,-2.1 1,-1.9 -6.6,-57.2 -.1,-1.4 -32.4,3.4 z"
       id="path62">
      <title
         id="title60">Indiana</title>
    </path>
    <path
       class="ia"
       d="m 556.9,183 2.1,1.6 .6,1.1 -1.6,3.3 -.1,2.5 2,5.5 2.7,1.5 3.3,.7 1.3,2.8 -.5,.6 2.5,1.3 1.7,1.7 -.2,1.6 .9,1.1 h 1.2 l 2.8,3.5 .1,2.6 -1.3,3.2 -1.1,1.3 -.1,2.4 -1.7,2.2 -4.2,1.8 h -2.4 l -3,.8 -1,4 1.1,1.6 1,.3 .9,1.4 -.1,3.5 -.5,.5 -1.7,2.4 v 2.4 l -1,1.2 -.9,.3 -1.8,.6 -1,1.5 .7,.9 -.1,2.3 -.7,.7 -1.5,-.8 -1.1,-1.1 -.6,-1.6 -1.7,-1.3 -14.3,.8 -27.2,1.2 -25.9,-.1 -1.8,-4.4 .7,-2.2 -.8,-3.3 .2,-2.9 -1.3,-.7 -.4,-6.1 -2.8,-5 -.2,-3.7 -2.2,-4.3 -1.3,-3.7 v -1.4 l -.6,-1.7 v -2.3 l -.5,-.9 -.7,-1.7 -.3,-1.3 -1.3,-1.2 1,-4.3 1.7,-5.1 -.7,-2 -1.3,-.4 -.4,-1.6 1,-.5 .1,-1.1 -1.3,-1.5 .1,-1.6 2.2,.1 h 28.2 l 36.3,-.9 18.6,-.7 z"
       id="path66">
      <title
         id="title64">Iowa</title>
    </path>
    <path
       class="ks"
       d="m 459.1,259.5 -43.7,-1.2 -36,-2 -4.8,67 67.7,2.9 62,.1 -.5,-48.1 -3.2,-.7 -2.6,-4.7 -2.5,-2.5 .5,-2.3 2.7,-2.6 .1,-1.2 -1.5,-2.1 -.9,1 -2,-.6 -2.9,-3 z"
       id="path70">
      <title
         id="title68">Kansas</title>
    </path>
    <path
       class="ky"
       d="m 692.1,322.5 -20.5,1.4 -5.2,.8 -17.4,1 -2.6,.8 -22.6,2 -.7,-.6 h -3.7 l 1.2,3.2 -.6,.9 -23.3,1.5 1,-2.7 1.4,.9 .7,-.4 1.2,-4.1 -1,-1 1,-2 .2,-.9 -1.3,-.8 -.3,-1.8 4,-3.7 6.9,3 1.5,-.3 .4,-2.4 -1.7,-1.8 .4,-3.3 1,-.5 1.2,.6 .6,-1.2 3.7,-.6 .1,-.9 -1.5,-2.2 -.1,-1.1 2.2,-2.7 0,-.9 1.1,.8 .6,-1 -.7,-1.7 4.6,-.5 .2,1.2 1.1,.2 .4,-.9 -.6,-1.3 .3,-.8 1.3,.8 1.7,-.4 1.7,.6 3.4,2.1 1.8,-2.8 3.5,-2.2 3,3.3 1.6,-2.1 .3,-2.7 3.8,-2.3 .2,1.3 1.9,1.2 3,-.2 1.2,-.7 .1,-3.4 2.5,-3.7 4.6,-4.4 -.1,-1.7 1.2,-3.8 2.2,1 6.7,-4.5 -.4,-1.7 -1.5,-2.1 1,-1.9 1.3,.5 2.2,.1 1.9,-.8 2.9,1.2 2.2,3.4 v 1 l 4.1,.7 2.3,-.2 1.9,2.1 2.2,.2 v -1 l 1.9,-.8 3,.8 1.2,.8 1.3,-.7 h .9 l .6,-1.7 3.4,-1.8 .5,.8 .8,2.9 3.5,1.4 1.2,2.1 -.1,1.1 .6,1 -.6,3.6 1.9,1.6 .8,1.1 1,.6 -.1,.9 4.4,5.6 h 1.4 l 1.5,1.8 1.2,.3 1.4,-.1 -4.9,6.6 -2.9,1 -3,3 -.4,2.2 -2.1,1.3 -.1,1.7 -1.4,1.4 -1.8,.5 -.5,1.9 -1,.4 -6.9,4.2 z m -98,11.3 -.7,-.7 .2,-1 h 1.1 l .7,.7 -.3,1 z"
       id="path74">
      <title
         id="title72">Kentucky</title>
    </path>
    <path
       class="la"
       d="m 602.5,472.8 -1.2,-1.8 .3,-1.3 -4.8,-6.8 .9,-4.6 1,-1.4 .1,-1.4 -36,2 1.7,-11.9 2.4,-4.8 6,-8.4 -1.8,-2.5 h 2 v -3.3 l -2.4,-2.5 .5,-1.7 -1.2,-1 -1.6,-7.1 .6,-1.4 -52.3,1.3 .5,19.9 .7,3.4 2.6,2.8 .7,5.4 3.8,4.6 .8,4.3 h 1 l -.1,7.3 -3.3,6.4 1.3,2.3 -1.3,1.5 .7,3 -.1,4.3 -2.2,3.5 -.1,.8 -1.7,1.2 1,1.8 1.2,1.1 1.6,-1.3 5.3,-.9 6.1,-.1 9.6,3.8 8,1 1.5,-1.4 1.8,-.2 4.8,2.2 1.6,-.4 1.1,-1.5 -4.2,-1.8 -2.2,1 -1.1,-.2 -1.4,-2 3.3,-2.2 1.6,-.1 v 1.7 l 1.5,-.1 3.4,-.3 .4,2.3 1.1,.4 .6,1.9 4.8,1 1.7,1.6 v .7 h -1.2 l -1.5,1.7 1.7,1.2 5.4,1 2.7,2.8 4.4,-1 -3.7,.2 -.1,-.6 2.8,-.7 .2,-1.8 1.2,-.3 v -1.4 l 1.1,.1 v 1.6 l 2.5,.1 .8,-1.9 .9,.3 .2,2.5 1.2,.2 -1.8,2 2.6,-.9 2,-1.1 2.9,-3.3 h -.7 l -1.3,1.2 -.4,-.1 -.5,-.8 .9,-1.2 v -2.3 l 1.1,-.8 .7,.7 1,-.8 1,-.1 .6,1.3 -.6,1.9 h 2.4 l 5.1,1.7 .5,1.3 1.6,1.4 2.8,.1 1.3,.7 1.8,-1 .9,-1.7 v -1.7 h -1.4 l -1.2,-1.4 -1.1,-1.1 -3.2,-.9 -2.6,.2 -4.2,-2.4 v -2.3 l 1.3,-1 2.4,.6 -3.1,-1.6 .2,-.8 h 3.6 l 2.6,-3.5 -2.6,-1.8 .8,-1.5 -1.2,-.8 h -.8 l -2,2.1 v 2.1 l -.6,.7 -1.1,-.1 -1.6,-1.4 h -1.3 v -1.5 l .6,-.7 .8,.7 1.7,-1.6 .7,-1.6 .8,-.3 z m -10.3,-2.7 1.9,1 .8,1.1 2.5,.1 1.5,.8 .2,1.4 -.4,.6 -.9,-1.5 -1.4,1.2 -.9,1.4 -2.8,.8 -1.6,.1 -3.7,-1 .1,-1.7 2,-2 1.1,-2.4 z m -4.7,1.2 v 1.1 l -1.8,2 h -1.2 v -2.2 l 1.6,-1.5 z"
       id="path78">
      <title
         id="title76">Louisiana</title>
    </path>
    <path
       class="me"
       d="m 875,128.7 .6,4 3.2,2 .8,2.2 2.3,1.4 1.4,-.3 1,-3 -.8,-2.9 1.6,-.9 .5,-2.8 -.6,-1.3 3.3,-1.9 -2.2,-2.3 .9,-2.4 1.4,-2.2 .5,3.2 1.6,-2 1.3,.9 1.2,-.8 v -1.7 l 3.2,-1.3 .3,-2.9 2.5,-.2 2.7,-3.7 v -.7 l -.9,-.5 -.1,-3.3 .6,-1.1 .2,1.6 1,-.5 -.2,-3.2 -.9,.3 -.1,1.2 -1.2,-1.4 .9,-1.4 .6,.1 1.1,-.4 .5,2.8 2,-.3 2.9,.7 v -1 l -1.1,-1.2 1.3,.1 .1,-2.3 .6,.8 .3,1.9 2.1,1.5 .2,-1 .9,-.2 -.3,-.8 .8,-.6 -.1,-1.6 -1.6,-.2 -2,.7 1.4,-1.6 .7,-.8 1.3,-.2 .4,1.3 1.7,1.6 .4,-2.1 2.3,-1.2 -.9,-1.3 .1,-1.7 1.1,.5 h .7 l 1.7,-1.4 .4,-2.3 2.2,.3 .1,-.7 .2,-1.6 .5,1.4 1.5,-1 2.3,-4.1 -.1,-2.2 -1.4,-2 -3,-3.2 h -1.9 l -.8,2.2 -2.9,-3 .3,-.8 v -1.5 l -1.6,-4.5 -.8,-.2 -.7,.4 h -4.8 l -.3,-3.6 -8.1,-26 -7.3,-3.7 -2.9,-.1 -6.7,6.6 -2.7,-1 -1,-3.9 h -2.7 l -6.9,19.5 .7,6.2 -1.7,2.4 -.4,4.6 1.3,3.7 .8,.2 v 1.6 l -1.6,4.5 -1.5,1.4 -1.3,2.2 -.4,7.8 -2.4,-1 -1.5,.4 z m 34.6,-24.7 -1,.8 v 1.3 l .7,-.8 .9,.8 .4,-.5 1.1,.2 -1,-.8 .4,-.8 z m -1.7,2.6 -1,1.1 .5,.4 -.1,1 h 1.1 v -1.8 z m -3,-1.6 .9,1.3 1,.5 .3,-1 v -1.8 l -1.3,-.7 -.4,1.2 z m -1,5 -1.7,-1.7 1.6,-2.4 .8,.3 .2,1.1 1,.8 v 1.1 l -1,1 z"
       id="path82">
      <title
         id="title80">Maine</title>
    </path>
    <path
       class="md"
       d="m 822.9,269.3 0,-1.7 h -.8 l 0,1.8 z m 11.8,-3.9 1.2,-2.2 .1,-2.5 -.6,-.6 -.7,.9 -.2,2.1 -.8,1.4 -.3,1.1 -4.6,1.6 -.7,.8 -1.3,.2 -.4,.9 -1.3,.6 -.3,-2.5 .4,-.7 -.8,-.5 .2,-1.5 -1.6,1 v -2 l 1.2,-.3 -1.9,-.4 -.7,-.8 .4,-1.3 -.8,-.6 -.7,1.6 .5,.8 -.7,.6 -1.1,.5 -2,-1 -.2,-1.2 -1,-1.1 -1.4,-1.7 1.5,-.8 -1,-.6 v -.9 l .6,-1 1.7,-.3 -1.4,-.6 -.1,-.7 -1.3,-.1 -.4,1.1 -.6,.3 .1,-3.4 1,-1 .8,.7 .1,-1.6 -1,-.9 -.9,1.1 -1,1.4 -.6,-1 .2,-2.4 .9,-1 .9,.9 1.2,-.7 -.4,-1.7 -1,1 -.9,-2.1 -.2,-1.7 1.1,-2.4 1.1,-1.4 1.4,-.2 -.5,-.8 .5,-.6 -.3,-.7 .2,-2.1 -1.5,.4 -.8,1.1 1,1.3 -2.6,3.6 -.9,-.4 -.7,.9 -.6,2.2 -1.8,.5 1.3,.6 1.3,1.3 -.2,.7 .9,1.2 -1.1,1 .5,.3 -.5,1.3 v 2.1 l -.5,1.3 .9,1.1 .7,3.4 1.3,1.4 1.6,1.4 .4,2.8 1.6,2 .4,1.4 v 1 h -.7 l -1.5,-1.2 -.4,.2 -1.2,-.2 -1.7,-1.4 -1.4,-.3 -1,.5 -1.2,-.3 -.4,.2 -1.7,-.8 -1,-1 -1,-1.3 -.6,-.2 -.8,.7 -1.6,1.3 -1.1,-.8 -.4,-2.3 .8,-2.1 -.3,-.5 .3,-.4 -.7,-1 1,-.1 1,-.9 .4,-1.8 1.7,-2.6 -2.6,-1.8 -1,1.7 -.6,-.6 h -1 l -.6,-.1 -.4,-.4 .1,-.5 -1.7,-.6 -.8,.3 -1.2,-.1 -.7,-.7 -.5,-.2 -.2,-.7 .6,-.8 v -.9 l -1.2,-.2 -1,-.9 -.9,.1 -1.6,-.3 -.9,-.4 .2,-1.6 -1,-.5 -.2,-.7 h -.7 l -.8,-1.2 .2,-1 -2.6,.4 -2.2,-1.6 -1.4,.3 -.9,1.4 h -1.3 l -1.7,2.9 -3.3,.4 -1.9,-1 -2.6,3.8 -2.2,-.3 -3.1,3.9 -.9,1.6 -1.8,1.6 -1.7,-11.4 60.5,-11.8 7.6,27.1 10.9,-2.3 0,5.3 -.1,3.1 -1,1.8 z m -13.4,-1.8 -1.3,.9 .8,1.8 1.7,.8 -.4,-1.6 z"
       id="path86">
      <title
         id="title84">Maryland</title>
    </path>
    <path
       class="ma"
       d="m 899.9,174.2 h 3.4 l .9,-.6 .1,-1.3 -1.9,-1.8 .4,1 -1.5,1.5 h -2.3 l .1,.8 z m -9,1.8 -1.2,-.6 1,-.8 .6,-2.1 1.2,-1 .8,-.2 .6,.9 1.1,.2 .6,-.6 .5,1.9 -1.3,.3 -2.8,.7 z m -34.9,-23.4 18.4,-3.8 1,-1.5 .3,-1.7 1.9,-.6 .5,-1.1 1.7,-1.1 1.3,.3 1.7,3.3 1,.4 1.1,-1.3 .8,1.3 v 1.1 l -3,2.4 .2,.8 -.9,1 .4,.8 -1.3,.3 .9,1.2 -.8,.7 .6,1 .9,-.2 .3,-.8 1.1,.6 h 1.8 l 2.5,2.6 .2,2.6 1.8,.1 .8,1.1 .6,2 1,.7 h 1.9 l 1.9,-.1 .8,-.9 1.6,-1.2 1.1,-.3 -1.2,-2.1 -.3,.9 -1.5,-3.6 h -.8 l -.4,.9 -1.2,-1 1.3,-1.1 1.8,.4 2.3,2.1 1.3,2.7 1.2,3.3 -1,2.8 v -1.8 l -.7,-1 -3.5,2.3 -.9,-.3 -1.6,1 -.1,1.2 -2.2,1.2 -2,2.1 -2,1.9 h -1.2 l 3.3,-3.3 .5,-1.9 -.5,-.6 -.3,-1.3 -.9,-.1 -.1,1.3 -1,1.2 h -1.2 l -.3,1.1 .4,1.2 -1.2,1.1 -1.1,-.2 -.4,1 -1.4,-3 -1.3,-1.1 -2.6,-1.3 -.6,-2.2 h -.8 l -.7,-2.6 -6.5,2 -.1,-.3 -14.9,3.4 v .7 l -.9,.3 -.5,-.7 -10.5,2.4 -.7,-1 .5,-15 z"
       id="path90">
      <title
         id="title88">Massachusetts</title>
    </path>
    <path
       class="mi"
       d="m 663.3,209.8 .1,1.4 21.4,-3.5 .5,-1.2 3.9,-5.9 v -4.3 l .8,-2.1 2.2,-.8 2,-7.8 1,-.5 1,.6 -.2,.6 -1.1,.8 .3,.9 .8,.4 1.9,-1.4 .4,-9.8 -1.6,-2.3 -1.2,-3.7 v -2.5 l -2.3,-4.4 v -1.8 l -1.2,-3.3 -2.3,-3 -2.9,-1 -4.8,3 -2.5,4.6 -.2,.9 -3,3.5 -1.5,-.2 -2.9,-2.8 -.1,-3.4 1.5,-1.9 2,-.2 1.2,-1.7 .2,-4 .8,-.8 1.1,-.1 .9,-1.7 -.2,-9.6 -.3,-1.3 -1.2,-1.2 -1.7,-1 -.1,-1.8 .7,-.6 1.8,.8 -.3,-1.7 -1.9,-2.7 -.7,-1.6 -1.1,-1.1 h -2.2 l -8.1,-2.9 -1.4,-1.7 -3.1,-.3 -1.2,.3 -4.4,-2.3 h -1.4 l .5,1 -2.7,-.1 .1,.6 .6,.6 -2.5,2.1 .1,1.8 1.5,2.3 1.5,.2 v .6 l -1.5,.5 -2.1,-.1 -2.8,2.5 .1,2.5 .4,5.8 -2.2,3.4 .8,-4.5 -.8,-.6 -.9,5.3 -1,-2.3 .5,-2.3 -.5,-1 .6,-1.3 -.6,-1.1 1,-1 v -1.2 l -1.3,.6 -1.3,3.1 -.7,.7 -1.3,2.4 -1.7,-.2 -.1,1.2 h -1.6 l .2,1.5 .2,2 -3,1.2 .1,1.3 1,1.7 -.1,5.2 -1.3,4.4 -1.7,2.5 1.2,1.4 .8,3.5 -1,2.5 -.2,2.1 1.7,3.4 2.5,4.9 1.2,1.9 1.6,6.9 -.1,8.8 -.9,3.9 -2,3.2 -.9,3.7 -2,3 -1.2,1 z m -95.8,-96.8 3,3.8 17,3.8 1.4,1 4,.8 .7,.5 2.8,-.2 4.9,.8 1.4,1.5 -1,1 .8,.8 3.8,.7 1.2,1.2 .1,4.4 -1.3,2.8 2,.1 1,-.8 .9,.8 -1.1,3.1 1,1.6 1.2,.3 .8,-1.8 2.9,-4.6 1.6,-6 2.3,-2 -.5,-1.6 .5,-.9 1,1.6 -.3,2.2 2.9,-2.2 .2,-2.3 2.1,.6 .8,-1.6 .7,.6 -.7,1.5 -1,.5 -1,2 1.4,1.8 1.1,-.5 -.5,-.7 1,-1.5 1.9,-1.7 h .8 l .2,-2.6 2,-1.8 7.9,-.5 1.9,-3.1 3.8,-.3 3.8,1.2 4.2,2.7 .7,-.2 -.2,-3.5 .7,-.2 4.5,1.1 1.5,-.2 2.9,-.7 1.7,.4 1.8,.1 v -1.1 l -.7,-.9 -1.5,-.2 -1.1,-.8 .5,-1.4 -.8,-.3 -2.6,.1 -.1,-1 1.1,-.8 .6,.8 .5,-1.8 -.7,-.7 .7,-.2 -1.4,-1.3 .3,-1.3 .1,-1.9 h -1.3 l -1.5,1 -1.9,.1 -.5,1.8 -1.9,.2 -.3,-1.2 -2.2,.1 -1,1.2 -.7,-.1 -.2,-.8 -2.6,.4 -.1,-4.8 1,-2 -.7,-.1 -1.8,1.1 h -2.2 l -3.8,2.7 -6.2,.3 -4.1,.8 -1.9,1.5 -1.4,1.3 -2.5,1.7 -.3,.8 -.6,-1.7 -1.3,-.6 v .6 l .7,.7 v 1.3 l -1.5,-.6 h -.6 l -.3,1.2 -2,-1.9 -1.3,-.2 -1.3,1.5 -3.2,-.1 -.5,-1.4 -2,-1.9 -1.3,-1.6 v -.7 l -1.1,-1.4 -2.6,-1.2 -3.3,-.1 -1.1,-.9 h -1.4 l -.7,.4 -2.2,2.2 -.7,1.1 -1,-.7 .2,-1 .8,-2.1 3.2,-5 .8,-.2 1.7,-1.9 .7,-1.6 3,-.6 .8,-.6 -.1,-1 -.5,-.5 -4.5,.2 -2,.5 -2.6,1.2 -1.2,1.2 -1.7,2.2 -1.8,1 -3.3,3.4 -.4,1.6 -7.4,4.6 -4,.5 -1.8,.4 -2.3,3 -1.8,.7 -4.4,2.3 z m 100.7,3.8 3.8,.1 .6,-.5 -.2,-2 -1.7,-1.8 -1.9,.1 -.1,.5 1.1,.4 -1.6,.8 -.3,1 -.6,-.6 -.4,.8 z m -75.1,-41.9 -2.3,.2 -2.7,1.9 -7.1,5.3 .8,1 1.8,.3 2.8,-2 -1.1,-.5 2.3,-1.6 h 1 l 3,-1.9 -.1,-.9 z m 41.1,62.8 v 1 l 2.1,1.6 -.2,-2.4 z m -.7,2.8 1.1,.1 v .9 h -1 z m 21.4,-21.3 v .9 l .8,-.2 v -.5 z m 4.7,3.1 -.1,-1.1 -1.6,-.2 -.6,-.4 h -.9 l -.4,.3 .9,.4 1.1,1.1 z m -18,1.2 -.1,1.1 -.3,.7 .2,2.2 .4,.3 .7,.1 .5,-.9 .1,-1.6 -.3,-.6 -.1,-1.1 z"
       id="path94">
      <title
         id="title92">Michigan</title>
    </path>
    <path
       class="mn"
       d="m 464.7,68.6 -1.1,2.8 .8,1.4 -.3,5.1 -.5,1.1 2.7,9.1 1.3,2.5 .7,14 1,2.7 -.4,5.8 2.9,7.4 .3,5.8 -.1,2.1 -.1,2.2 -.9,2 -3.1,1.9 -.3,1.2 1.7,2.5 .4,1.8 2.6,.6 1.5,1.9 -.2,39.5 h 28.2 l 36.3,-.9 18.6,-.7 -1.1,-4.5 -.2,-3 -2.2,-3 -2.8,-.7 -5.2,-3.6 -.6,-3.3 -6.3,-3.1 -.2,-1.3 h -3.3 l -2.2,-2.6 -2,-1.3 .7,-5.1 -.9,-1.6 .5,-5.4 1,-1.8 -.3,-2.7 -1.2,-1.3 -1.8,-.3 v -1.7 l 2.8,-5.8 5.9,-3.9 -.4,-13 .9,.4 .6,-.5 .1,-1.1 .9,-.6 1.4,1.2 .7,-.1 v 0 l -1.2,-2.2 4.3,-3.1 3.1,-3.7 1.6,-.8 4.7,-5.9 6.3,-5.8 3.9,-2.1 6.3,-2.7 7.6,-4.5 -.6,-.4 -3.7,.7 -2.8,.1 -1,-1.6 -1.4,-.9 -9.8,1.2 -1,-2.8 -1.6,-.1 -1.7,.8 -3.7,3.1 h -4.1 l -2.1,-1 -.3,-1.7 -3.9,-.8 -.6,-1.6 -.7,-1.3 -1,.9 -2.6,.1 -9.9,-5.5 h -2.9 l -.8,-.7 -3.1,1.3 -.8,1.3 -3.3,.8 -1.3,-.2 v -1.7 l -.7,-.9 h -5.9 l -.4,-1.4 h -2.6 l -1.1,.4 -2.4,-1.7 .3,-1.4 -.6,-2.4 -.7,-1.1 -.2,-3 -1,-3.1 -2.1,-1.6 h -2.9 l .1,8 -30.9,-.4 z"
       id="path98">
      <title
         id="title96">Minnesota</title>
    </path>
    <path
       class="ms"
       d="m 623.8,468.6 -5,.1 -2.4,-1.5 -7.9,2.5 -.9,-.7 -.5,.2 -.1,1.6 -.6,.1 -2.6,2.7 -.7,-.1 -.6,-.7 -1.2,-1.8 .3,-1.3 -4.8,-6.8 .9,-4.6 1,-1.4 .1,-1.4 -36,2 1.7,-11.9 2.4,-4.8 6,-8.4 -1.8,-2.5 h 2 v -3.3 l -2.4,-2.5 .5,-1.7 -1.2,-1 -1.6,-7.1 .6,-1.4 1.2,-1.5 .5,-3 -1.5,-2.3 -.5,-2.2 .9,-.7 v -.8 l -1.7,-1.1 -.1,-.7 1.6,-.9 -1.2,-1.1 1.7,-7.1 3.4,-1.6 v -.8 l -1.1,-1.4 2.9,-5.4 h 1.9 l 1.5,-1.2 -.3,-5.2 3.1,-4.5 1.8,-.6 -.5,-3.1 38.3,-2.6 1.3,2 -1.3,67 4.4,33.2 z"
       id="path102">
      <title
         id="title100">Mississippi</title>
    </path>
    <path
       class="mo"
       d="m 555.3,248.9 -1.1,-1.1 -.6,-1.6 -1.7,-1.3 -14.3,.8 -27.2,1.2 -25.9,-.1 1.3,1.3 -.3,1.4 2.1,3.7 3.9,6.3 2.9,3 2,.6 .9,-1 1.5,2.1 -.1,1.2 -2.7,2.6 -.5,2.3 2.5,2.5 2.6,4.7 3.2,.7 .5,48.1 .2,10.8 39.1,-.7 39.8,-2 1.6,2.5 v 2.2 l -1.7,1.5 -2.8,5.1 11.2,-.8 1,-2 1.2,-.5 v -.7 l -1.2,-1.1 -.6,-1 1.7,.2 .8,-.7 -1.4,-1.5 1.4,-.5 .1,-1 -.6,-1 v -1.3 l -.7,-.7 .2,-1 h 1.1 l .7,.7 -.3,1 .8,.7 .8,-1 1,-2.7 1.4,.9 .7,-.4 1.2,-4.1 -1,-1 1,-2 .2,-.9 -1.3,-.8 h -2.8 l -1.4,-1.5 -1.8,-3.8 v -1.9 l .8,-.6 .1,-1.3 -1.7,-1.9 -.9,-2.5 -2.7,-4.1 -4.8,-1.3 -7.4,-7.1 -.4,-2.4 2.8,-7.6 -.4,-1.9 1.2,-1.1 v -1.3 l -2.8,-1.5 -3,-.7 -3.4,1.2 -1.3,-2.3 .6,-1.9 -.7,-2.4 -8.6,-8.4 -2.2,-1.5 -2.5,-5.9 -1.2,-5.4 1.4,-3.7 z"
       id="path106">
      <title
         id="title104">Missouri</title>
    </path>
    <path
       class="mt"
       d="m 247,130.5 57.3,7.9 51,5.3 2,-20.7 5.2,-66.7 -53.5,-5.6 -54.3,-7.7 -65.9,-12.5 -4.8,22 3.7,7.4 -1.6,4.8 3.6,4.8 1.9,.7 3.9,8.3 v 2.1 l 2.3,3 h .9 l 1.4,2.1 h 3.2 v 1.6 l -7.1,17 -.5,4.1 1.4,.5 1.6,2.6 2.8,-1.4 3.6,-2.4 1.9,1.9 .5,2.5 -.5,3.2 2.5,9.7 2.6,3.5 2.3,1.4 .4,3 v 4.1 l 2.3,2.3 1.6,-2.3 6.9,1.6 2.1,-1.2 9,1.7 2.8,-3.3 1.8,-.6 1.2,1.8 1.6,4.1 .9,.1 z"
       id="path110">
      <title
         id="title108">Montana</title>
    </path>
    <path
       class="ne"
       d="m 402.5,191.1 38,1.6 3.4,3.2 1.7,.2 2.1,2 1.8,-.1 1.8,-2 1.5,.6 1,-.7 .7,.5 .9,-.4 .7,.4 .9,-.4 1,.5 1.4,-.6 2,.6 .6,1.1 6.1,2.2 1.2,1.3 .9,2.6 1.8,.7 1.5,-.2 .5,.9 v 2.3 l .6,1.7 v 1.4 l 1.3,3.7 2.2,4.3 .2,3.7 2.8,5 .4,6.1 1.3,.7 -.2,2.9 .8,3.3 -.7,2.2 1.8,4.4 1.3,1.3 -.3,1.4 2.1,3.7 3.9,6.3 h -32.4 l -43.7,-1.2 -36,-2 1.4,-22.1 -33.1,-2.4 3.7,-44.2 z"
       id="path114">
      <title
         id="title112">Nebraska</title>
    </path>
    <path
       class="nv"
       d="m 167.6,296.8 -3.4,17.5 -2.4,2.9 h -2 l -1.2,-2.7 -3.7,-1.4 -3.5,.6 -1,13.6 .5,4.9 -.5,2.9 -1.4,3 -70.4,-105 -1.1,-3.5 16.4,-63.1 47,11.2 24.4,5.4 23.3,4.7 z"
       id="path118">
      <title
         id="title116">Nevada</title>
    </path>
    <path
       class="nh"
       d="m 862.6,93.6 -1.3,.1 -1,-1.1 -1.9,1.4 -.5,6.1 1.2,2.3 -1.1,3.5 2.1,2.8 -.4,1.7 .1,1.3 -1.1,2.1 -1.4,.4 -.6,1.3 -2.1,1 -.7,1.5 1.4,3.4 -.5,2.5 .5,1.5 -1,1.9 .4,1.9 -1.3,1.9 .2,2.2 -.7,1.1 .7,4.5 .7,1.5 -.5,2.6 .9,1.8 -.2,2.5 -.5,1.3 -.1,1.4 2.1,2.6 18.4,-3.8 1,-1.5 .3,-1.7 1.9,-.6 .5,-1.1 1.7,-1.1 1.3,.3 .8,-4.8 -2.3,-1.4 -.8,-2.2 -3.2,-2 -.6,-4 -11.9,-36.8 z"
       id="path122">
      <title
         id="title120">New Hampshire</title>
    </path>
    <path
       class="nj"
       d="m 842.5,195.4 -14.6,-4.9 -1.8,2.5 .1,2.2 -3,5.4 1.5,1.8 -.7,2 -1,1 .5,3.6 2.7,.9 1,2.8 2.1,1.1 4.2,3.2 -3.3,2.6 -1.6,2.3 -1.8,3 -1.6,.6 -1.4,1.7 -1,2.2 -.3,2.1 .8,.9 .4,2.3 1.2,.6 2.4,1.5 1.8,.8 1.6,.8 .1,1.1 .8,.1 1.1,-1.2 .8,.4 2.1,.2 -.2,2.9 .2,2.5 1.8,-.7 1.5,-3.9 1.6,-4.8 2.9,-2.8 .6,-3.5 -.6,-1.2 1.7,-2.9 v -1.2 l -.7,-1.1 1.2,-2.7 -.3,-3.6 -.6,-8.2 -1.2,-1.4 v 1.4 l .5,.6 h -1.1 l -.6,-.4 -1.3,-.2 -.9,.6 -1.2,-1.6 .7,-1.7 v -1 l 1.7,-.7 .8,-2.1 z"
       id="path126">
      <title
         id="title124">New Jersey</title>
    </path>
    <path
       class="nm"
       d="m 357.5,332.9 h -.8 l -7.9,99.3 -31.8,-2.6 -34.4,-3.6 -.3,3 2,2.2 -30.8,-4.1 -1.4,10.2 -15.7,-2.2 17.4,-124.1 52.6,6.5 51.7,4.8 z"
       id="path130">
      <title
         id="title128">New Mexico</title>
    </path>
    <path
       class="ny"
       d="m 872.9,181.6 -1.3,.1 -.5,1 z m -30.6,22.7 .7,.6 1.3,-.3 1.1,.3 .9,-1.3 h 1.9 l 2.4,-.9 5.1,-2.1 -.5,-.5 -1.9,.8 -2,.9 .2,-.8 2.6,-1.1 .8,-1 1.2,.1 4.1,-2.3 v .7 l -4.2,3 4.5,-2.8 1.7,-2.2 1.5,-.1 4.5,-3.1 3.2,-3.1 3,-2.3 1,-1.2 -1.7,-.1 -1,1.2 -.2,.7 -.9,.7 -.8,-1.1 -1.7,1 -.1,.9 -.9,-.2 .5,-.9 -1.2,-.7 -.6,.9 .9,.3 .2,.5 -.3,.5 -1.4,2.6 h -1.9 l .9,-1.8 .9,-.6 .3,-1.7 1.4,-1.6 .9,-.8 1.5,-.7 -1.2,-.2 -.7,.9 h -.7 l -1.1,.8 -.2,1 -2.2,2.1 -.4,.9 -1.4,.9 -7.7,1.9 .2,.9 -.9,.7 -2,.3 -1,-.6 -.2,1.1 -1.1,-.4 .1,1 -1.2,-.1 -1.2,.5 -.2,1.1 h -1 l .2,1 h -.7 l .2,1 -1.8,.4 -1.5,2.3 z m -.8,-.4 -1.6,.4 v 1 l -.7,1.6 .6,.7 2.4,-2.3 -.1,-.9 z m -10.1,-95.2 -.6,1.9 1.4,.9 -.4,1.5 .5,3.2 2.2,2.3 -.4,2.2 .6,2 -.4,1 -.3,3.8 3.1,6.7 -.8,1.8 .9,2.2 .9,-1.6 1.9,1.5 3,14.2 -.5,2 1.1,1 -.5,15 .7,1 2.8,16.3 1.8,1.5 -3.5,3.4 1.7,2.2 -1.3,3.3 -1.5,1.7 -1.5,2.3 -.2,-.7 .4,-5.9 -14.6,-4.9 -1.6,-1.1 -1.9,.3 -3,-2.2 -3,-5.8 h -2 l -.4,-1.5 -1.7,-1.1 -70.5,13.9 -.8,-6 4.3,-3.9 .6,-1.7 3.9,-2.5 .6,-2.4 2.3,-2 .8,-1.1 -1.7,-3.3 -1.7,-.5 -1.8,-3 -.2,-3.2 7.6,-3.9 8.2,-1.6 h 4.4 l 3.2,1.6 .9,-.1 1.8,-1.6 3.4,-.7 h 3 l 2.6,-1.3 2.5,-2.6 2.4,-3.1 1.9,-.4 1.1,-.5 .4,-3.2 -1.4,-2.7 -1.2,-.7 2,-1.3 -.1,-1.8 h -1.5 l -2.3,-1.4 -.1,-3.1 6.2,-6.1 .7,-2.4 3.7,-6.3 5.9,-6.4 2.1,-1.7 2.5,.1 20.6,-5.2 z"
       id="path134">
      <title
         id="title132">New York</title>
    </path>
    <path
       class="nc"
       d="m 829,300.1 -29.1,6.1 -39.4,7.3 -29.4,3.5 v 5.2 l -1.5,-.1 -1.4,1.2 -2.4,5.2 -2.6,-1.1 -3.5,2.5 -.7,2.1 -1.5,1.2 -.8,-.8 -.1,-1.5 -.8,-.2 -4,3.3 -.6,3.4 -4.7,2.4 -.5,1.2 -3.2,2.6 -3.6,.5 -4.6,3 -.8,4.1 -1.3,.9 -1.5,-.1 -1.4,1.3 -.1,4.9 21.4,-3 4.4,-1.9 1.3,-.1 7.3,-4.3 23.2,-2.2 .4,.5 -.2,1.4 .7,.3 1.2,-1.5 3.3,3 .1,2.6 19.7,-2.8 24.5,17.1 4,-2.2 3,-.7 h 1.7 l 1.1,1.1 .8,-2 .6,-5 1.7,-3.9 5.4,-6.1 4.1,-3.5 5.4,-2.3 2.5,-.4 1.3,.4 .7,1.1 3.3,-6.6 3.3,-5.3 -.7,-.3 -4.4,6.8 -.5,-.8 2,-2.2 -.4,-1.5 -2,-.5 1,1.3 -1.2,.1 -1.2,-1.8 -1.2,2 -1.6,.2 1,-2.7 .7,-1.7 -.2,-2.9 -2.2,-.1 .9,-.9 1.1,.3 2.7,.1 .8,-.5 h 2.3 l 2,-1.9 .2,-3.2 1.3,-1.4 1.2,-.2 1.3,-1 -.5,-3.7 -2.2,-3.8 -2.7,-.2 -.9,1.6 -.5,-1 -2.7,.2 -1.2,.4 -1.9,1.2 -.3,-.4 h -.9 l -1.8,1.2 -2.6,.5 v -1.3 l .8,-1 1,.7 h 1 l 1.7,-2.1 3.7,-1.7 2,-2.2 h 2.4 l .8,1.3 1.7,.8 -.5,-1.5 -.3,-1.6 -2.8,-3.1 -.3,-1.4 -.4,1 -.9,-1.3 z m 7,31 2.7,-2.5 4.6,-3.3 v -3.7 l -.4,-3.1 -1.7,-4.2 1.5,1.4 1,3.2 .4,7.6 -1.7,.4 -3.1,2.4 -3.2,3.2 z m 1.9,-19.3 -.9,-.2 v 1 l 2.5,2.2 -.2,-1.4 z m 2.9,2.1 -1.4,-2.8 -2.2,-3.4 -2.4,-3 -2.2,-4.3 -.8,-.7 2.2,4.3 .3,1.3 3.4,5.5 1.8,2.1 z"
       id="path138">
      <title
         id="title136">North Carolina</title>
    </path>
    <path
       class="nd"
       d="m 464.7,68.6 -1.1,2.8 .8,1.4 -.3,5.1 -.5,1.1 2.7,9.1 1.3,2.5 .7,14 1,2.7 -.4,5.8 2.9,7.4 .3,5.8 -.1,2.1 -29.5,-.4 -46,-2.1 -39.2,-2.9 5.2,-66.7 44.5,3.4 55.3,1.6 z"
       id="path142">
      <title
         id="title140">North Dakota</title>
    </path>
    <path
       class="oh"
       d="m 685.7,208.8 1.9,-.4 3,1.3 2.1,.6 .7,.9 h 1 l 1,-1.5 1.3,.8 h 1.5 l -.1,1 -3.1,.5 -2,1.1 1.9,.8 1.6,-1.5 2.4,-.4 2.2,1.5 1.5,-.1 2.5,-1.7 3.6,-2.1 5.2,-.3 4.9,-5.9 3.8,-3.1 9.3,-5.1 4.9,29.9 -2.2,1.2 1.4,2.1 -.1,2.2 .6,2 -1.1,3.4 -.1,5.4 -1,3.6 .5,1.1 -.4,2.2 -1.1,.5 -2,3.3 -1.8,2 h -.6 l -1.8,1.7 -1.3,-1.2 -1.5,1.8 -.3,1.2 h -1.3 l -1.3,2.2 .1,2.1 -1,.5 1.4,1.1 v 1.9 l -1,.2 -.7,.8 -1,.5 -.6,-2.1 -1.6,-.5 -1,2.3 -.3,2.2 -1.1,1.3 1.3,3.6 -1.5,.8 -.4,3.5 h -1.5 l -3.2,1.4 -1.2,-2.1 -3.5,-1.4 -.8,-2.9 -.5,-.8 -3.4,1.8 -.6,1.7 h -.9 l -1.3,.7 -1.2,-.8 -3,-.8 -1.9,.8 v 1 l -2.2,-.2 -1.9,-2.1 -2.3,.2 -4.1,-.7 v -1 l -2.2,-3.4 -2.9,-1.2 -1.9,.8 -2.2,-.1 -1.3,-.5 -6.6,-57.2 21.4,-3.5 z"
       id="path146">
      <title
         id="title144">Ohio</title>
    </path>
    <path
       class="ok"
       d="m 501.5,398.6 -4.6,-3.8 -2.2,-.9 -.5,1.6 -5.1,.3 -.6,-1.5 -5,2.5 -1.6,-.7 -3.7,.3 -.6,1.7 -3.6,.9 -1.3,-1.2 -1.2,.1 -2,-1.8 -2.1,.7 -2,-.5 -1.8,-2 -2.5,4.2 -1.2,.8 -1,-1.8 .3,-2 -1.2,-.7 -2.3,2.5 -1.7,-1.2 -.1,-1.5 -1.3,.5 -2.6,-1.7 -3,2.6 -2.3,-1.1 .7,-2.1 -2.3,.1 -1.9,-3 -3.5,-1.1 -2,2.3 -2.3,-2.2 -1.4,.4 -2,.1 -3.5,-1.9 -2.3,.1 -1.2,-.7 -.5,-2.9 -2.3,-1.7 -1.1,1.5 -1.4,-1 -1.2,-.4 -1.1,1 -1.5,-.3 -2.5,-3 -2.7,-1.3 1.4,-42.7 -52.6,-3.2 .6,-10.6 16.5,1 67.7,2.9 62,.1 .2,10.8 4.1,24.4 -.7,39 z"
       id="path150">
      <title
         id="title148">Oklahoma</title>
    </path>
    <path
       class="or"
       d="m 93.9,166.5 47,11.2 8.5,-37.3 2.9,-5.8 .4,-2.1 .8,-.9 -.9,-2 -2.9,-1.2 .2,-4.2 4,-5.8 2.5,-.8 1.6,-2.3 -.1,-1.6 1.8,-1.6 3.2,-5.5 4.2,-4.8 -.5,-3.2 -3.5,-3.1 -1.6,-3.6 -30.3,-7.3 -2.8,1 -5.4,-.9 -1.8,-.9 -1.5,1.2 -3.3,-.4 -4.5,.5 -.9,.7 -4.2,-.4 -.8,-1.6 -1.2,-.2 -4.4,1.3 -1.6,-1.1 -2.2,.8 -.2,-1.8 -2.3,-1.2 -1.5,-.2 -1,-1.1 -3,.3 -1.2,-.8 h -1.2 l -1.2,.9 -5.5,.7 -6.6,-4.2 1.1,-5.6 -.4,-4.1 -3.2,-3.7 -3.7,.1 -.4,-1.1 .4,-1.2 -.7,-.8 -1,.1 -1.1,1.3 -1.5,-.2 -.5,-1.1 -1,-.1 -.7,.6 -2,-1.9 v 4.3 l -1.3,1.3 -1.1,3.5 -.1,2.3 -4.5,12.3 -13.2,31.3 -3.2,4.6 -1.6,-.1 .1,2.1 -5.2,7.1 -.3,3.3 1,1.3 .1,2.4 -1.2,1.1 -1.2,3 .1,5.7 1.2,2.9 z"
       id="path154">
      <title
         id="title152">Oregon</title>
    </path>
    <path
       class="pa"
       d="m 826.3,189.4 -1.9,.3 -3,-2.2 -3,-5.8 h -2 l -.4,-1.5 -1.7,-1.1 -70.5,13.9 -.8,-6 -4.2,3.4 -.9,.1 -2.7,3 -3.3,1.7 4.9,29.9 3.2,19.7 17.4,-2.9 60.5,-11.8 1.2,-2.1 1.5,-1.1 1.6,-.3 1.6,.6 1.4,-1.7 1.6,-.6 1.8,-3 1.6,-2.3 3.3,-2.6 -4.2,-3.2 -2.1,-1.1 -1,-2.8 -2.7,-.9 -.5,-3.6 1,-1 .7,-2 -1.5,-1.8 3,-5.4 -.1,-2.2 1.8,-2.5 z"
       id="path158">
      <title
         id="title156">Pennsylvania</title>
    </path>
    <path
       class="ri"
       d="m 883.2,170.7 -1.3,-1.1 -2.6,-1.3 -.6,-2.2 h -.8 l -.7,-2.6 -6.5,2 3.2,12.3 -.4,1.1 .4,1.8 5.6,-3.6 .1,-3 -.8,-.8 .4,-.6 -.1,-1.3 -.9,-.7 1.2,-.4 -.9,-1.6 1.8,.7 .3,1.4 .7,1.2 -1.4,-.8 1.1,1.7 -.3,1.2 -.6,-1.1 v 2.5 l .6,-.9 .4,.9 1.3,-1.5 -.2,-2.5 1.4,3.1 1,-.9 z m -4.7,12.2 h .9 l .5,-.6 -.8,-1.3 -.7,.7 z"
       id="path162">
      <title
         id="title160">Rhode Island</title>
    </path>
    <path
       class="sc"
       d="m 772.3,350.2 -19.7,2.8 -.1,-2.6 -3.3,-3 -1.2,1.5 -.7,-.3 .2,-1.4 -.4,-.5 -23.2,2.2 -7.3,4.3 -1.3,.1 -4.4,1.9 -.1,1.9 -1.9,1 -1.4,3.2 .2,1.3 6.1,3.8 2.6,-.3 3.1,4 .4,1.7 4.2,5.1 2.6,1.7 1.4,.2 2.2,1.6 1.1,2.2 2,1.6 1.8,.5 2.7,2.7 .1,1.4 2.6,2.8 5,2.3 3.6,6.7 .3,2.7 3.9,2.1 2.5,4.8 .8,3.1 4.2,.4 .8,-1.5 h .6 l 1.8,-1.5 .5,-2 3.2,-2.1 .3,-2.4 -1.2,-.9 .8,-.7 .8,.4 1.3,-.4 1.8,-2.1 3.8,-1.8 1.6,-2.4 .1,-.7 4.8,-4.4 -.1,-.5 -.9,-.8 1.1,-1.5 h .8 l .4,.5 .7,-.8 h 1.3 l .6,-1.5 2.3,-2.1 -.3,-5.4 .8,-2.3 3.6,-6.2 2.4,-2.2 2.2,-1.1 z"
       id="path166">
      <title
         id="title164">South Carolina</title>
    </path>
    <path
       class="sd"
       d="m 396.5,125.9 46,2.1 29.5,.4 -.1,2.2 -.9,2 -3.1,1.9 -.3,1.2 1.7,2.5 .4,1.8 2.6,.6 1.5,1.9 -.2,39.5 -2.2,-.1 -.1,1.6 1.3,1.5 -.1,1.1 -1,.5 .4,1.6 1.3,.4 .7,2 -1.7,5.1 -1,4.3 1.3,1.2 .3,1.3 .7,1.7 -1.5,.2 -1.8,-.7 -.9,-2.6 -1.2,-1.3 -6.1,-2.2 -.6,-1.1 -2,-.6 -1.4,.6 -1,-.5 -.9,.4 -.7,-.4 -.9,.4 -.7,-.5 -1,.7 -1.5,-.6 -1.8,2 -1.8,.1 -2.1,-2 -1.7,-.2 -3.4,-3.2 -38,-1.6 -51.1,-3.5 3.9,-43.9 2,-20.7 z"
       id="path170">
      <title
         id="title168">South Dakota</title>
    </path>
    <path
       class="tn"
       d="m 620.9,365.1 45.7,-4 22.9,-2.9 .1,-4.9 1.4,-1.3 1.5,.1 1.3,-.9 .8,-4.1 4.6,-3 3.6,-.5 3.2,-2.6 .5,-1.2 4.7,-2.4 .6,-3.4 4,-3.3 .8,.2 .1,1.5 .8,.8 1.5,-1.2 .7,-2.1 3.5,-2.5 2.6,1.1 2.4,-5.2 1.4,-1.2 1.5,.1 0,-5.2 .3,-.7 -4.6,.5 -.2,1 -28.9,3.3 -5.6,1.4 -20.5,1.4 -5.2,.8 -17.4,1 -2.6,.8 -22.6,2 -.7,-.6 h -3.7 l 1.2,3.2 -.6,.9 -23.3,1.5 -.8,1 -.8,-.7 h -1 v 1.3 l .6,1 -.1,1 -1.4,.5 1.4,1.5 -.8,.7 -1.7,-.2 .6,1 1.2,1.1 v .7 l -1.2,.5 -1,2 .1,.6 1.4,1 -.4,.7 h -1.5 v .5 l .9,.9 .1,.8 -1.4,.2 -.5,.8 -1.6,.2 -.9,.9 .6,.9 1.1,-.1 .5,.9 -1.6,1.3 .4,1.5 -2,-.6 -.1,.7 .4,1.1 -.3,1.4 -1.3,-.8 -.8,.8 1.1,.1 .1,1.5 -.6,1 1.1,.9 -.3,1.5 .8,.7 -.7,1 -1.2,-.5 -.9,2.2 -1.6,.7 z"
       id="path174">
      <title
         id="title172">Tennessee</title>
    </path>
    <path
       class="tx"
       d="m 282.3,429 .3,-3 34.4,3.6 31.8,2.6 7.9,-99.3 .8,0 52.6,3.2 -1.4,42.7 2.7,1.3 2.5,3 1.5,.3 1.1,-1 1.2,.4 1.4,1 1.1,-1.5 2.3,1.7 .5,2.9 1.2,.7 2.3,-.1 3.5,1.9 2,-.1 1.4,-.4 2.3,2.2 2,-2.3 3.5,1.1 1.9,3 2.3,-.1 -.7,2.1 2.3,1.1 3,-2.6 2.6,1.7 1.3,-.5 .1,1.5 1.7,1.2 2.3,-2.5 1.2,.7 -.3,2 1,1.8 1.2,-.8 2.5,-4.2 1.8,2 2,.5 2.1,-.7 2,1.8 1.2,-.1 1.3,1.2 3.6,-.9 .6,-1.7 3.7,-.3 1.6,.7 5,-2.5 .6,1.5 5.1,-.3 .5,-1.6 2.2,.9 4.6,3.8 6.4,1.9 2.6,2.3 2.8,-1.3 3.2,.8 .2,11.9 .5,19.9 .7,3.4 2.6,2.8 .7,5.4 3.8,4.6 .8,4.3 h 1 l -.1,7.3 -3.3,6.4 1.3,2.3 -1.3,1.5 .7,3 -.1,4.3 -2.2,3.5 -.1,.8 -1.7,1.2 1,1.8 1.2,1.1 -3.5,.3 -8.4,3.9 -3.5,1.4 -1.8,1.8 -.7,-.5 2.1,-2.3 1.8,-.7 .5,-.9 -2.9,-.1 -.7,-.8 .8,-2 -.9,-1.8 h -.6 l -2.4,1.3 -1.9,2.6 .3,1.7 3.3,3.4 1.3,.3 v .8 l -2.3,1.6 -4.9,4 -4,3.9 -3.2,1.4 -5,3 -3.7,2 -4.5,1.9 -4.1,2.5 3.2,-3 v -1.1 l .6,-.8 -.2,-1.8 -1.5,-.1 -1.1,1.5 -2.6,1.3 -1.8,-1.2 -.3,-1.7 h -1.5 l .8,2.2 1.4,.7 1.2,.9 1.8,1.6 -.7,.8 -3.9,1.7 -1.7,.1 -1.2,-1.2 -.5,2.1 .5,1.1 -2.7,2 -1.5,.2 -.8,.7 -.4,1.7 -1.8,3.3 -1.6,.7 -1.6,-.6 -1.8,1.1 .3,1.4 1.3,.8 1,.8 -1.8,3.5 -.3,2.8 -1,1.7 -1.4,1 -2.9,.4 1.8,.6 1.9,-.6 -.4,3.2 -1.1,-.1 .2,1.2 .3,1.4 -1.3,.9 v 3.1 l 1.6,1.4 .6,3.1 -.4,2.2 -1,.4 .4,1.5 1.1,.4 .8,1.7 v 2.6 l 1.1,2.1 2.2,2.6 -.1,.7 -2.2,-.2 -1.6,1.4 .2,1.4 -.9,-.3 -1.4,-.2 -3.4,-3.7 -2.3,-.6 h -7.1 l -2.8,-.8 -3.6,-3 -1.7,-1 -2.1,.1 -3.2,-2.6 -5.4,-1.6 v -1.3 l -1.4,-1.8 -.9,-4.7 -1.1,-1.7 -1.7,-1.4 v -1.6 l -1.4,-.6 .6,-2.6 -.3,-2.2 -1.3,-1.4 .7,-3 -.8,-3.2 -1.7,-1.4 h -1.1 l -4,-3.5 .1,-1.9 -.8,-1.7 -.8,-.2 -.9,-2.4 -2,-1.6 -2.9,-2.5 -.2,-2.1 -1,-.7 .2,-1.6 .5,-.7 -1.4,-1.5 .1,-.7 -2,-2.2 .1,-2.1 -2.7,-4.9 -.1,-1.7 -1.8,-3.1 -5.1,-4.8 v -1.1 l -3.3,-1.7 -.1,-1.8 -1.2,-.4 v -.7 l -.8,-.2 -2.1,-2.8 h -.8 l -.7,-.6 -1.3,1.1 h -2.2 l -2.6,-1.1 h -4.6 l -4.2,-2.1 -1.3,1.9 -2.2,-.6 -3.3,1.2 -1.7,2.8 -2,3.2 -1.1,4.4 -1.4,1.2 -1.1,.1 -.9,1.6 -1.3,.6 -.1,1.8 -2.9,.1 -1.8,-1.5 h -1 l -2,-2.9 -3.6,-.5 -1.7,-2.3 -1.3,-.2 -2.1,-.8 -3.4,-3.4 .2,-.8 -1.6,-1.2 -1,-.1 -3.4,-3.1 -.1,-2 -2.3,-4 .2,-1.6 -.7,-1.3 .8,-1.5 -.1,-2.4 -2.6,-4.1 -.6,-4.2 -1.6,-1.6 v -1 l -1.2,-.2 -.7,-1.1 -2.4,-1.7 -.9,-.1 -1.9,-1.6 v -1.1 l -2.9,-1.8 -.6,-2.1 -2.6,-2.3 -3.2,-4.4 -3,-1.3 -2.1,-1.8 .2,-1.2 -1.3,-1.4 -1.7,-3.7 -2.4,-1 z m 174.9,138.3 .8,.1 -.6,-4.8 -3.5,-12.3 -.2,-8.1 4.9,-10.5 6.1,-8.2 7.2,-5.1 v -.7 h -.8 l -2.6,1 -3.6,2.3 -.7,1.5 -8.2,11.6 -2.8,7.9 v 8.8 l 3.6,12 z"
       id="path178">
      <title
         id="title176">Texas</title>
    </path>
    <path
       class="ut"
       d="m 233.2,217.9 3.3,-21.9 -47.9,-8.2 -21,109 46.2,8.2 40,6 11.5,-88.3 z"
       id="path182">
      <title
         id="title180">Utah</title>
    </path>
    <path
       class="vt"
       d="m 859.1,102.4 -1.1,3.5 2.1,2.8 -.4,1.7 .1,1.3 -1.1,2.1 -1.4,.4 -.6,1.3 -2.1,1 -.7,1.5 1.4,3.4 -.5,2.5 .5,1.5 -1,1.9 .4,1.9 -1.3,1.9 .2,2.2 -.7,1.1 .7,4.5 .7,1.5 -.5,2.6 .9,1.8 -.2,2.5 -.5,1.3 -.1,1.4 2.1,2.6 -12.4,2.7 -1.1,-1 .5,-2 -3,-14.2 -1.9,-1.5 -.9,1.6 -.9,-2.2 .8,-1.8 -3.1,-6.7 .3,-3.8 .4,-1 -.6,-2 .4,-2.2 -2.2,-2.3 -.5,-3.2 .4,-1.5 -1.4,-.9 .6,-1.9 -.8,-1.7 27.3,-6.9 z"
       id="path186">
      <title
         id="title184">Vermont</title>
    </path>
    <path
       class="va"
       d="m 834.7,265.4 -1.1,2.8 .5,1.1 .4,-1.1 .8,-3.1 z m -34.6,-7 -.7,-1 1,-.1 1,-.9 .4,-1.8 -.2,-.5 .1,-.5 -.3,-.7 -.6,-.5 -.4,-.1 -.5,-.4 -.6,-.6 h -1 l -.6,-.1 -.4,-.4 .1,-.5 -1.7,-.6 -.8,.3 -1.2,-.1 -.7,-.7 -.5,-.2 -.2,-.7 .6,-.8 v -.9 l -1.2,-.2 -1,-.9 -.9,.1 -1.6,-.3 -.4,.7 -.4,1.6 -.5,2.3 -10,-5.2 -.2,.9 .9,1.6 -.8,2.3 .1,2.9 -1.2,.8 -.5,2.1 -.9,.8 -1.4,1.8 -.9,.8 -1,2.5 -2.4,-1.1 -2.3,8.5 -1.3,1.6 -2.8,-.5 -1.3,-1.9 -2.3,-.7 -.1,4.7 -1.4,1.7 .4,1.5 -2.1,2.2 .4,1.9 -3.7,6.3 -1,3.3 1.5,1.2 -1.5,1.9 .1,1.4 -2.3,2 -.7,-1.1 -4.3,3.1 -1.5,-1 -.6,1.4 .8,.5 -.5,.9 -5.5,2.4 -3,-1.8 -.8,1.7 -1.9,1.8 -2.3,.1 -4.4,-2.3 -.1,-1.5 -1.5,-.7 .8,-1.2 -.7,-.6 -4.9,6.6 -2.9,1 -3,3 -.4,2.2 -2.1,1.3 -.1,1.7 -1.4,1.4 -1.8,.5 -.5,1.9 -1,.4 -6.9,4.2 28.9,-3.3 .2,-1 4.6,-.5 -.3,.7 29.4,-3.5 39.4,-7.3 29.1,-6.1 -.6,-1.2 .4,-.1 .9,.9 -.1,-1.4 -.3,-1.9 1.6,1.2 .9,2.1 v -1.3 l -3.4,-5.5 v -1.2 l -.7,-.8 -1.3,.7 .5,1.4 h -.8 l -.4,-1 -.6,.9 -.9,-1.1 -2.1,-.1 -.2,.7 1.5,2.1 -1.4,-.7 -.5,-1 -.4,.8 -.8,.1 -1.5,1.7 .3,-1.6 v -1.4 l -1.5,-.7 -1.8,-.5 -.2,-1.7 -.6,-1.3 -.6,1.1 -1.7,-1 -2,.3 .2,-.9 1.5,-.2 .9,.5 1.7,-.8 .9,.4 .5,1 v .7 l 1.9,.4 .3,.9 .9,.4 .9,1.2 1.4,-1.6 h .6 l -.1,-2.1 -1.3,1 -.6,-.9 1.5,-.2 -1.2,-.9 -1.2,.6 -.1,-1.7 -1.7,.2 -2.2,-1.1 -1.8,-2.2 3.6,2.2 .9,.3 1.7,-.8 -1.7,-.9 .6,-.6 -1,-.5 .8,-.2 -.3,-.9 1.1,.9 .4,-.8 .4,1.3 1.2,.8 .6,-.5 -.5,-.6 -.1,-2.5 -1.1,-.1 -1.6,-.8 .9,-1.1 -2,-.1 -.4,-.5 -1.4,.6 -1.4,-.8 -.5,-1.2 -2.1,-1.2 -2.1,-1.8 -2.2,-1.9 3,1.3 .9,1.2 2.1,.7 2.3,2.5 .2,-1.7 .6,1.3 2.3,.5 v -4 l -.8,-1.1 1.1,.4 .1,-1.6 -3.1,-1.4 -1.6,-.2 -1.3,-.2 .3,-1.2 -1.5,-.3 -.1,-.6 h -1.8 l -.2,.8 -.7,-1 h -2.7 l -1,-.4 -.2,-1 -1.2,-.6 -.4,-1.5 -.6,-.4 -.7,1.1 -.9,.2 -.9,.7 h -1.5 l -.9,-1.3 .4,-3.1 .5,-2.4 .6,.5 z m 21.9,11.6 .9,-.1 0,-.6 -.8,.1 z m 7.5,14.2 -1,2.7 1.2,-1.3 z m -1.8,-15.3 .7,.3 -.2,1.9 -.5,-.5 -1.3,1 1,.4 -1.8,4.4 .1,8.1 1.9,3.1 .5,-1.5 .4,-2.7 -.3,-2.3 .7,-.9 -.2,-1.4 1.2,-.6 -.6,-.5 .5,-.7 .8,1.1 -.2,1.1 -.4,3.9 1.1,-2.2 .4,-3.1 .1,-3 -.3,-2 .6,-2.3 1.1,-1.8 .1,-2.2 .3,-.9 -4.6,1.6 -.7,.8 z"
       id="path190">
      <title
         id="title188">Virginia</title>
    </path>
    <path
       class="wa"
       d="m 161.9,83.6 .7,4 -1.1,4.3 -30.3,-7.3 -2.8,1 -5.4,-.9 -1.8,-.9 -1.5,1.2 -3.3,-.4 -4.5,.5 -.9,.7 -4.2,-.4 -.8,-1.6 -1.2,-.2 -4.4,1.3 -1.6,-1.1 -2.2,.8 -.2,-1.8 -2.3,-1.2 -1.5,-.2 -1,-1.1 -3,.3 -1.2,-.8 h -1.2 l -1.2,.9 -5.5,.7 -6.6,-4.2 1.1,-5.6 -.4,-4.1 -3.2,-3.7 -3.7,.1 -.4,-1.1 .4,-1.2 -.7,-.8 -1,.1 -2.1,-1.5 -1.2,.4 -2,-.1 -.7,-1.5 -1.6,-.3 2.5,-7.5 -.7,6 .5,.5 v -2 l .8,-.2 1.1,2.3 -.5,-2.2 1.2,-4.2 1.8,.4 -1.1,-2 -1,.3 -1.5,-.4 .2,-4.2 .2,1.5 .9,.5 .6,-1.6 h 3.2 l -2.2,-1.2 -1.7,-1.9 -1.4,1.6 1.2,-3.1 -.3,-4.6 -.2,-3.6 .9,-6.1 -.5,-2 -1.4,-2.1 .1,-4 .4,-2.7 2,-2.3 -.7,-1.4 .2,-.6 .9,.1 7.8,7.6 4.7,1.9 5.1,2.5 3.2,-.1 .2,3 1,-1.6 h .7 l .6,2.7 .5,-2.6 1.4,-.2 .5,.7 -1.1,.6 .1,1.6 .7,-1.5 h 1.1 l -.4,2.6 -1.1,-.8 .4,1.4 -.1,1.5 -.8,.7 -2.5,2.9 1.2,-3.4 -1.6,.4 -.4,2.1 -3.8,2.8 -.4,1 -2.1,2.2 -.1,1 h 2.2 l 2.4,-.2 .5,-.9 -3.9,.5 v -.6 l 2.6,-2.8 1.8,-.8 1.9,-.2 1,-1.6 3,-2.3 v -1.4 h 1.1 l .1,4 h -1.5 l -.6,.8 -1.1,-.9 .3,1.1 v 1.7 l -.7,.7 -.3,-1.6 -.8,.8 .7,.6 -.9,1.1 h 1.3 l .7,-.5 .1,2 -1,1.9 -.9,1 -.1,1.8 -1,-.2 -.2,-1.4 .9,-1.1 -.8,-.5 -.8,.7 -.7,2.2 -.8,.9 -.1,-2 .8,-1.1 -.2,-1.1 -1.2,1.2 .1,2.2 -.6,.4 -2.1,-.4 -1.3,1.2 2.2,-.6 -.2,2.2 1,-1.8 .4,1.4 .5,-1 .7,1.8 h .7 l .7,-.8 .6,-.1 2,-1.9 .2,-1.2 .8,.6 .3,.9 .7,-.3 .1,-1.2 h 1.3 l .2,-2.9 -.1,-2.7 .9,.3 -.7,-2.1 1.4,-.8 .2,-2.4 2.3,-2.2 1,.1 .3,-1.4 -1.2,-1.4 -.1,-3.5 -.8,.9 .7,2.9 -.6,.1 -.6,-1.9 -.6,-.5 .3,-2.3 1.8,-.1 .3,.7 .3,-1.6 -1.6,-1.7 -.6,-1.6 -.2,2 .9,1.1 -.7,.4 -1,-.8 -1.8,1.3 1.5,.5 .2,2.4 -.3,1.8 .9,-1.3 1.4,2.3 -.4,1.9 h -1.5 v -1.2 l -1.5,-1.2 .5,-3 -1.9,-2.6 2.7,-3 .6,-4.1 h .9 l 1.4,3.2 v -2.6 l 1.2,.3 v -3.3 l -.9,-.8 -1.2,2.5 -1,-3 1.3,-.1 -1.5,-4.9 1.9,-.6 25.4,7.5 31.7,8 23.6,5.5 z m -78.7,-39.4 h .5 l .1,.8 -.5,.3 .1,.6 -.7,.4 -.2,-.9 .5,-.4 z m 5,-4.3 -1.2,1.9 -.1,.8 .4,.2 .5,-.6 1.1,.1 z m -.4,-21.6 .5,.6 1.3,-.3 .2,-1 1.2,-1.8 -1,-.4 -.7,1.6 -.1,-1.6 -1.1,.2 -.7,1.4 z m 3.2,-5.5 .7,1.5 -.9,.2 -.8,.4 -.2,-2.4 z m -2.7,-1.6 -1.1,-.2 .5,1.4 z m -1,2.5 .8,.4 -.4,1.1 1.7,-.5 -.2,-2.2 -.9,-.2 z m -2.7,-.4 .3,2.7 1.6,1.3 .6,-1.9 -1.1,-2.2 z m 1.9,-1.1 -1.1,-1 -.9,.1 1.8,1.5 z m 3.2,-7 h -1.2 v .8 l 1.2,.6 z m -.9,32.5 .4,-2.7 h -1.1 l -.2,1.9 z"
       id="path194">
      <title
         id="title192">Washington</title>
    </path>
    <path
       class="wv"
       d="m 723.4,297.5 -.8,1.2 1.5,.7 .1,1.5 4.4,2.3 2.3,-.1 1.9,-1.8 .8,-1.7 3,1.8 5.5,-2.4 .5,-.9 -.8,-.5 .6,-1.4 1.5,1 4.3,-3.1 .7,1.1 2.3,-2 -.1,-1.4 1.5,-1.9 -1.5,-1.2 1,-3.3 3.7,-6.3 -.4,-1.9 2.1,-2.2 -.4,-1.5 1.4,-1.7 .1,-4.7 2.3,.7 1.3,1.9 2.8,.5 1.3,-1.6 2.3,-8.5 2.4,1.1 1,-2.5 .9,-.8 1.4,-1.8 .9,-.8 .5,-2.1 1.2,-.8 -.1,-2.9 .8,-2.3 -.9,-1.6 .2,-.9 10,5.2 .5,-2.3 .4,-1.6 .4,-.7 -.9,-.4 .2,-1.6 -1,-.5 -.2,-.7 h -.7 l -.8,-1.2 .2,-1 -2.6,.4 -2.2,-1.6 -1.4,.3 -.9,1.4 h -1.3 l -1.7,2.9 -3.3,.4 -1.9,-1 -2.6,3.8 -2.2,-.3 -3.1,3.9 -.9,1.6 -1.8,1.6 -1.7,-11.4 -17.4,2.9 -3.2,-19.7 -2.2,1.2 1.4,2.1 -.1,2.2 .6,2 -1.1,3.4 -.1,5.4 -1,3.6 .5,1.1 -.4,2.2 -1.1,.5 -2,3.3 -1.8,2 h -.6 l -1.8,1.7 -1.3,-1.2 -1.5,1.8 -.3,1.2 h -1.3 l -1.3,2.2 .1,2.1 -1,.5 1.4,1.1 v 1.9 l -1,.2 -.7,.8 -1,.5 -.6,-2.1 -1.6,-.5 -1,2.3 -.3,2.2 -1.1,1.3 1.3,3.6 -1.5,.8 -.4,3.5 h -1.5 l -3.2,1.4 -.1,1.1 .6,1 -.6,3.6 1.9,1.6 .8,1.1 1,.6 -.1,.9 4.4,5.6 h 1.4 l 1.5,1.8 1.2,.3 1.4,-.1 z"
       id="path198">
      <title
         id="title196">West Virginia</title>
    </path>
    <path
       class="wi"
       d="m 611,144 -2.9,.8 .2,2.3 -2.4,3.4 -.2,3.1 .6,.7 .8,-.7 .5,-1.6 2,-1.1 1.6,-4.2 3.5,-1.1 .8,-3.3 .7,-.9 .4,-2.1 1.8,-1.1 v -1.5 l 1,-.9 1.4,.1 v 2 l -1,.1 .5,1.2 -.7,2.2 -.6,.1 -1.2,4.5 -.7,.5 -2.8,7.2 -.3,4.2 .6,2 .1,1.3 -2.4,1.9 .3,1.9 -.9,3.1 .3,1.6 .4,3.7 -1.1,4.1 -1.5,5 1,1.5 -.3,.3 .8,1.7 -.5,1.1 1.1,.9 v 2.7 l 1.3,1.5 -.4,3 .3,4 -45.9,2.8 -1.3,-2.8 -3.3,-.7 -2.7,-1.5 -2,-5.5 .1,-2.5 1.6,-3.3 -.6,-1.1 -2.1,-1.6 -.2,-2.6 -1.1,-4.5 -.2,-3 -2.2,-3 -2.8,-.7 -5.2,-3.6 -.6,-3.3 -6.3,-3.1 -.2,-1.3 h -3.3 l -2.2,-2.6 -2,-1.3 .7,-5.1 -.9,-1.6 .5,-5.4 1,-1.8 -.3,-2.7 -1.2,-1.3 -1.8,-.3 v -1.7 l 2.8,-5.8 5.9,-3.9 -.4,-13 .9,.4 .6,-.5 .1,-1.1 .9,-.6 1.4,1.2 .7,-.1 h 2.6 l 6.8,-2.6 .3,-1 h 1.2 l .7,-1.2 .4,.8 1.8,-.9 1.8,-1.7 .3,.5 1,-1 2.2,1.6 -.8,1.6 -1.2,1.4 .5,1.5 -1.4,1.6 .4,.9 2.3,-1.1 v -1.4 l 3.3,1.9 1.9,.7 1.9,.7 3,3.8 17,3.8 1.4,1 4,.8 .7,.5 2.8,-.2 4.9,.8 1.4,1.5 -1,1 .8,.8 3.8,.7 1.2,1.2 .1,4.4 -1.3,2.8 2,.1 1,-.8 .9,.8 -1.1,3.1 1,1.6 1.2,.3 z m -49.5,-37.3 -.5,.1 -1.5,1.6 .2,.5 1.5,-.6 v -.6 l .9,-.3 z m 1.6,-1.1 -1,.3 -.2,.7 .9,-.1 z m -1.3,-1.6 -.2,.9 h 1.7 l .6,-.4 .1,-1 z m 2.8,-3 -.3,1.9 1.2,-.5 .1,-1.4 z m 58.3,31.9 -2,.3 -.4,1.3 1.3,1.7 z"
       id="path202">
      <title
         id="title200">Wisconsin</title>
    </path>
    <path
       class="wy"
       d="m 355.3,143.7 -51,-5.3 -57.3,-7.9 -2,10.7 -8.5,54.8 -3.3,21.9 32.1,4.8 44.9,5.7 37.5,3.4 3.7,-44.2 z"
       id="path206">
      <title
         id="title204">Wyoming</title>
    </path>
    <path
       class="dc"
       d="m 803.5,252 -2.6,-1.8 -1,1.7 .5,.4 .4,.1 .6,.5 .3,.7 -.1,.5 .2,.5 z"
       id="path210">
      <title
         id="title208">District of Columbia</title>
    </path>
  </g>
  <g
     class="borders"
     fill="none"
     id="g428">
    <path
       class="al-fl"
       d="m 687.6,447.4 -48.8,5.1 -.5,2.9 2.5,2.8 1.7,.7 .9,1.2 -.4,7.3 -1.1,.6"
       id="path214" />
    <path
       class="al-ga"
       d="m 666.6,361.1 12.9,45.8 2.9,6.1 1.8,1.9 v 3.2 l 1.7,1 .2,1.1 -2.2,3.8 -.3,3.7 -.5,2.6 2.4,5.7 -.6,6.3 .5,1.4 1.5,1.5 .7,2.2"
       id="path216" />
    <path
       class="al-ms"
       d="m 620.9,365.1 1.3,2 -1.3,67 4.4,33.2"
       id="path218" />
    <path
       class="al-tn"
       d="m 620.9,365.1 45.7,-4"
       id="path220" />
    <path
       class="ar-la"
       d="m 516.7,414.2 52.3,-1.3"
       id="path222" />
    <path
       class="ar-mo"
       d="m 591.7,344.9 -11.2,.8 2.8,-5.1 1.7,-1.5 v -2.2 l -1.6,-2.5 -39.8,2 -39.1,.7"
       id="path224" />
    <path
       class="ar-ms"
       d="m 569,412.9 1.2,-1.5 .5,-3 -1.5,-2.3 -.5,-2.2 .9,-.7 v -.8 l -1.7,-1.1 -.1,-.7 1.6,-.9 -1.2,-1.1 1.7,-7.1 3.4,-1.6 0,-.8 -1.1,-1.4 2.9,-5.4 h 1.9 l 1.5,-1.2 -.3,-5.2 3.1,-4.5 1.8,-.6 -.5,-3.1"
       id="path226" />
    <path
       class="ar-ok"
       d="m 507.9,400.5 .7,-39 -4.1,-24.4"
       id="path228" />
    <path
       class="ar-tn"
       d="m 582.6,367.7 1.6,-.7 .9,-2.2 1.2,.5 .7,-1 -.8,-.7 .3,-1.5 -1.1,-.9 .6,-1 -.1,-1.5 -1.1,-.1 .8,-.8 1.3,.8 .3,-1.4 -.4,-1.1 .1,-.7 2,.6 -.4,-1.5 1.6,-1.3 -.5,-.9 -1.1,.1 -.6,-.9 .9,-.9 1.6,-.2 .5,-.8 1.4,-.2 -.1,-.8 -.9,-.9 0,-.5 h 1.5 l .4,-.7 -1.4,-1 -.1,-.6"
       id="path230" />
    <path
       class="ar-tx"
       d="m 507.9,400.5 2.6,2.3 2.8,-1.3 3.2,.8 .2,11.9"
       id="path232" />
    <path
       class="az-ca"
       d="m 149,338.1 -.9,2.1 1.3,3.4 1.4,1.8 1.2,5.8 2.3,2.5 .4,1.9 -1.3,1.3 -4.8,1.7 -2.4,3.6 -1.6,7 -2.4,3.2 -1.6,.3 -1.1,6.9 1.1,1.6 1.8,.2 1,1.6 -.8,2.4 -3,2.2 -2.2,-.1"
       id="path234" />
    <path
       class="az-nm"
       d="m 253.8,311 -17.4,124.1"
       id="path236" />
    <path
       class="az-nv"
       d="m 167.6,296.8 -3.4,17.5 -2.4,2.9 h -2 l -1.2,-2.7 -3.7,-1.4 -3.5,.6 -1,13.6 .5,4.9 -.5,2.9 -1.4,3"
       id="path238" />
    <path
       class="az-ut"
       d="m 167.6,296.8 46.2,8.2 40,6"
       id="path240" />
    <path
       class="ca-nv"
       d="m 93.9,166.5 -16.4,63.1 1.1,3.5 70.4,105"
       id="path242" />
    <path
       class="ca-or"
       d="m 27.8,147.9 66.1,18.6"
       id="path244" />
    <path
       class="co-ks"
       d="m 379.4,256.3 -4.8,67"
       id="path246" />
    <path
       class="co-ne"
       d="m 347.7,231.8 33.1,2.4 -1.4,22.1"
       id="path248" />
    <path
       class="co-nm"
       d="m 253.8,311 52.6,6.5 51.7,4.8"
       id="path250" />
    <path
       class="co-ok"
       d="m 358.1,322.3 16.5,1"
       id="path252" />
    <path
       class="co-ut"
       d="m 265.3,222.7 -11.5,88.3"
       id="path254" />
    <path
       class="co-wy"
       d="m 265.3,222.7 44.9,5.7 37.5,3.4"
       id="path256" />
    <path
       class="ct-ma"
       d="m 843.8,171.3 10.5,-2.4 .5,.7 .9,-.3 0,-.7 14.9,-3.4 .1,.3"
       id="path258" />
    <path
       class="ct-ny"
       d="m 846.6,194.7 -1.7,-2.2 3.5,-3.4 -1.8,-1.5 -2.8,-16.3"
       id="path260" />
    <path
       class="ct-ri"
       d="m 870.7,165.5 3.2,12.3 -.4,1.1 .4,1.8"
       id="path262" />
    <path
       class="dc-md"
       d="m 801.8,254.6 1.7,-2.6 -2.6,-1.8 -1,1.7"
       id="path264" />
    <path
       class="dc-va"
       d="m 799.9,251.9 .5,.4 .4,.1 .6,.5 .3,.7 -.1,.5 .2,.5"
       id="path266" />
    <path
       class="de-md"
       d="m 817.9,230.1 7.6,27.1 10.9,-2.3"
       id="path268" />
    <path
       class="de-nj"
       d="m 823.8,227.2 -1,2.2 -.3,2.1"
       id="path270" />
    <path
       class="de-pa"
       d="m 817.9,230.1 1.2,-2.1 1.5,-1.1 1.6,-.3 1.6,.6"
       id="path272" />
    <path
       class="fl-ga"
       d="m 687.6,447.4 3.3,6 50.1,-3.3 .6,3.2 1,1.1 2.1,-.6 .5,-4.3 -1.4,-2.1 v -2.5 l 2.2,-1.4 1.7,.9 4,.7 3.6,-.3"
       id="path274" />
    <path
       class="ga-nc"
       d="m 689.5,358.2 21.4,-3"
       id="path276" />
    <path
       class="ga-sc"
       d="m 710.9,355.2 -.1,1.9 -1.9,1 -1.4,3.2 .2,1.3 6.1,3.8 2.6,-.3 3.1,4 .4,1.7 4.2,5.1 2.6,1.7 1.4,.2 2.2,1.6 1.1,2.2 2,1.6 1.8,.5 2.7,2.7 .1,1.4 2.6,2.8 5,2.3 3.6,6.7 .3,2.7 3.9,2.1 2.5,4.8 .8,3.1 4.2,.4"
       id="path278" />
    <path
       class="ga-tn"
       d="m 666.6,361.1 22.9,-2.9"
       id="path280" />
    <path
       class="ia-il"
       d="m 556.8,249.7 .7,-.7 .1,-2.3 -.7,-.9 1,-1.5 1.8,-.6 .9,-.3 1,-1.2 0,-2.4 1.7,-2.4 .5,-.5 .1,-3.5 -.9,-1.4 -1,-.3 -1.1,-1.6 1,-4 3,-.8 h 2.4 l 4.2,-1.8 1.7,-2.2 .1,-2.4 1.1,-1.3 1.3,-3.2 -.1,-2.6 -2.8,-3.5 -1.2,0 -.9,-1.1 .2,-1.6 -1.7,-1.7 -2.5,-1.3 .5,-.6"
       id="path282" />
    <path
       class="ia-mn"
       d="m 473.6,182 28.2,0 36.3,-.9 18.6,-.7"
       id="path284" />
    <path
       class="ia-mo"
       d="m 484.5,246.8 25.9,.1 27.2,-1.2 14.3,-.8 1.7,1.3 .6,1.6 1.1,1.1 1.5,.8"
       id="path286" />
    <path
       class="ia-ne"
       d="m 484.5,246.8 -1.8,-4.4 .7,-2.2 -.8,-3.3 .2,-2.9 -1.3,-.7 -.4,-6.1 -2.8,-5 -.2,-3.7 -2.2,-4.3 -1.3,-3.7 v -1.4 l -.6,-1.7 v -2.3 l -.5,-.9"
       id="path288" />
    <path
       class="ia-sd"
       d="m 473.5,204.2 -.7,-1.7 -.3,-1.3 -1.3,-1.2 1,-4.3 1.7,-5.1 -.7,-2 -1.3,-.4 -.4,-1.6 1,-.5 .1,-1.1 -1.3,-1.5 .1,-1.6 2.2,.1"
       id="path290" />
    <path
       class="ia-wi"
       d="m 567.2,202 -1.3,-2.8 -3.3,-.7 -2.7,-1.5 -2,-5.5 .1,-2.5 1.6,-3.3 -.6,-1.1 -2.1,-1.6 -.2,-2.6"
       id="path292" />
    <path
       class="id-mt"
       d="m 188.8,30.5 -4.8,22 3.7,7.4 -1.6,4.8 3.6,4.8 1.9,.7 3.9,8.3 v 2.1 l 2.3,3 h .9 l 1.4,2.1 h 3.2 v 1.6 l -7.1,17 -.5,4.1 1.4,.5 1.6,2.6 2.8,-1.4 3.6,-2.4 1.9,1.9 .5,2.5 -.5,3.2 2.5,9.7 2.6,3.5 2.3,1.4 .4,3 v 4.1 l 2.3,2.3 1.6,-2.3 6.9,1.6 2.1,-1.2 9,1.7 2.8,-3.3 1.8,-.6 1.2,1.8 1.6,4.1 .9,.1"
       id="path294" />
    <path
       class="id-nv"
       d="m 140.9,177.7 24.4,5.4 23.3,4.7"
       id="path296" />
    <path
       class="id-or"
       d="m 140.9,177.7 8.5,-37.3 2.9,-5.8 .4,-2.1 .8,-.9 -.9,-2 -2.9,-1.2 .2,-4.2 4,-5.8 2.5,-.8 1.6,-2.3 -.1,-1.6 1.8,-1.6 3.2,-5.5 4.2,-4.8 -.5,-3.2 -3.5,-3.1 -1.6,-3.6"
       id="path298" />
    <path
       class="id-ut"
       d="m 236.5,196 -47.9,-8.2"
       id="path300" />
    <path
       class="id-wa"
       d="m 174.6,27.5 -12.7,56.1 .7,4 -1.1,4.3"
       id="path302" />
    <path
       class="id-wy"
       d="m 245,141.2 -8.5,54.8"
       id="path304" />
    <path
       class="il-in"
       d="m 619.4,215.7 4.1,50.2 -1,5.2 v 2 l 2.4,3.5 v .7 l -.3,.9 .9,1.9 -.3,2.4 -1.6,1.8 -1.3,4.2 -3.8,5.3 -.1,7 h -1 l .9,1.9"
       id="path306" />
    <path
       class="il-ky"
       d="m 599.9,322.5 -.3,-1.8 4,-3.7 6.9,3 1.5,-.3 .4,-2.4 -1.7,-1.8 .4,-3.3 1,-.5 1.2,.6 .6,-1.2 3.7,-.6 .1,-.9 -1.5,-2.2 -.1,-1.1 2.2,-2.7 v -.9"
       id="path308" />
    <path
       class="il-mo"
       d="m 599.9,322.5 -2.8,0 -1.4,-1.5 -1.8,-3.8 v -1.9 l .8,-.6 .1,-1.3 -1.7,-1.9 -.9,-2.5 -2.7,-4.1 -4.8,-1.3 -7.4,-7.1 -.4,-2.4 2.8,-7.6 -.4,-1.9 1.2,-1.1 v -1.3 l -2.8,-1.5 -3,-.7 -3.4,1.2 -1.3,-2.3 .6,-1.9 -.7,-2.4 -8.6,-8.4 -2.2,-1.5 -2.5,-5.9 -1.2,-5.4 1.4,-3.7"
       id="path310" />
    <path
       class="il-wi"
       d="m 567.2,202 45.9,-2.8"
       id="path312" />
    <path
       class="in-ky"
       d="m 618.3,302.7 1.1,.8 .6,-1 -.7,-1.7 4.6,-.5 .2,1.2 1.1,.2 .4,-.9 -.6,-1.3 .3,-.8 1.3,.8 1.7,-.4 1.7,.6 3.4,2.1 1.8,-2.8 3.5,-2.2 3,3.3 1.6,-2.1 .3,-2.7 3.8,-2.3 .2,1.3 1.9,1.2 3,-.2 1.2,-.7 .1,-3.4 2.5,-3.7 4.6,-4.4 -.1,-1.7 1.2,-3.8 2.2,1 6.7,-4.5 -.4,-1.7 -1.5,-2.1 1,-1.9"
       id="path314" />
    <path
       class="in-mi"
       d="m 630.9,213.2 32.4,-3.4 .1,1.4"
       id="path316" />
    <path
       class="in-oh"
       d="m 670,268.4 -6.6,-57.2"
       id="path318" />
    <path
       class="ks-mo"
       d="m 504.3,326.3 -.5,-48.1 -3.2,-.7 -2.6,-4.7 -2.5,-2.5 .5,-2.3 2.7,-2.6 .1,-1.2 -1.5,-2.1 -.9,1 -2,-.6 -2.9,-3"
       id="path320" />
    <path
       class="ks-ne"
       d="m 379.4,256.3 36,2 43.7,1.2 h 32.4"
       id="path322" />
    <path
       class="ks-ok"
       d="m 374.6,323.3 67.7,2.9 62,.1"
       id="path324" />
    <path
       class="ky-mo"
       d="m 596.7,333.5 1,-2.7 1.4,.9 .7,-.4 1.2,-4.1 -1,-1 1,-2 .2,-.9 -1.3,-.8 m -5.8,11.3 -.7,-.7 .2,-1 h 1.1 l .7,.7 -.3,1"
       id="path326" />
    <path
       class="ky-oh"
       d="m 670,268.4 1.3,.5 2.2,.1 1.9,-.8 2.9,1.2 2.2,3.4 v 1 l 4.1,.7 2.3,-.2 1.9,2.1 2.2,.2 v -1 l 1.9,-.8 3,.8 1.2,.8 1.3,-.7 h .9 l .6,-1.7 3.4,-1.8 .5,.8 .8,2.9 3.5,1.4 1.2,2.1"
       id="path328" />
    <path
       class="ky-tn"
       d="m 596.7,333.5 23.3,-1.5 .6,-.9 -1.2,-3.2 h 3.7 l .7,.6 22.6,-2 2.6,-.8 17.4,-1 5.2,-.8 20.5,-1.4 5.6,-1.4 m -103.6,12.7 h 1"
       id="path330" />
    <path
       class="ky-va"
       d="m 697.7,321.1 6.9,-4.2 1,-.4 .5,-1.9 1.8,-.5 1.4,-1.4 .1,-1.7 2.1,-1.3 .4,-2.2 3,-3 2.9,-1 4.9,-6.6"
       id="path332" />
    <path
       class="ky-wv"
       d="m 709.3,279.4 -.1,1.1 .6,1 -.6,3.6 1.9,1.6 .8,1.1 1,.6 -.1,.9 4.4,5.6 h 1.4 l 1.5,1.8 1.2,.3 1.4,-.1"
       id="path334" />
    <path
       class="la-ms"
       d="m 569,412.9 -.6,1.4 1.6,7.1 1.2,1 -.5,1.7 2.4,2.5 v 3.3 l -2,0 1.8,2.5 -6,8.4 -2.4,4.8 -1.7,11.9 36,-2 -.1,1.4 -1,1.4 -.9,4.6 4.8,6.8 -.3,1.3 1.2,1.8 .6,.7"
       id="path336" />
    <path
       class="la-tx"
       d="m 516.7,414.2 .5,19.9 .7,3.4 2.6,2.8 .7,5.4 3.8,4.6 .8,4.3 h 1 l -.1,7.3 -3.3,6.4 1.3,2.3 -1.3,1.5 .7,3 -.1,4.3 -2.2,3.5 -.1,.8 -1.7,1.2 1,1.8 1.2,1.1"
       id="path338" />
    <path
       class="ma-nh"
       d="m 856,152.6 18.4,-3.8 1,-1.5 .3,-1.7 1.9,-.6 .5,-1.1 1.7,-1.1 1.3,.3"
       id="path340" />
    <path
       class="ma-ny"
       d="m 843.8,171.3 -.7,-1 .5,-15"
       id="path342" />
    <path
       class="ma-ri"
       d="m 870.7,165.5 6.5,-2 .7,2.6 h .8 l .6,2.2 2.6,1.3 1.3,1.1 1.4,3"
       id="path344" />
    <path
       class="ma-vt"
       d="m 843.6,155.3 12.4,-2.7"
       id="path346" />
    <path
       class="md-pa"
       d="m 757.4,241.9 60.5,-11.8"
       id="path348" />
    <path
       class="md-va"
       d="m 822.9,269.3 -.8,.1 m 13.2,-4.3 -.6,.3 m -1.3,.2 -4.6,1.6 -.7,.8 m -28.2,-16.1 -.6,-.6 h -1 l -.6,-.1 -.4,-.4 .1,-.5 -1.7,-.6 -.8,.3 -1.2,-.1 -.7,-.7 -.5,-.2 -.2,-.7 .6,-.8 v -.9 l -1.2,-.2 -1,-.9 -.9,.1 -1.6,-.3 m 11.6,13.5 .3,-.4 -.7,-1 1,-.1 1,-.9 .4,-1.8"
       id="path350" />
    <path
       class="md-wv"
       d="m 757.4,241.9 1.7,11.4 1.8,-1.6 .9,-1.6 3.1,-3.9 2.2,.3 2.6,-3.8 1.9,1 3.3,-.4 1.7,-2.9 h 1.3 l .9,-1.4 1.4,-.3 2.2,1.6 2.6,-.4 -.2,1 .8,1.2 h .7 l .2,.7 1,.5 -.2,1.6 .9,.4"
       id="path352" />
    <path
       class="me-nh"
       d="m 881.9,138.3 -2.3,-1.4 -.8,-2.2 -3.2,-2 -.6,-4 -11.9,-36.8"
       id="path354" />
    <path
       class="mi-oh"
       d="m 663.4,211.2 21.4,-3.5"
       id="path356" />
    <path
       class="mi-wi"
       d="m 565.6,112.3 1.9,.7 3,3.8 17,3.8 1.4,1 4,.8 .7,.5 2.8,-.2 4.9,.8 1.4,1.5 -1,1 .8,.8 3.8,.7 1.2,1.2 .1,4.4 -1.3,2.8 2,.1 1,-.8 .9,.8 -1.1,3.1 1,1.6 1.2,.3"
       id="path358" />
    <path
       class="mn-nd"
       d="m 462.3,61.3 2.4,7.3 -1.1,2.8 .8,1.4 -.3,5.1 -.5,1.1 2.7,9.1 1.3,2.5 .7,14 1,2.7 -.4,5.8 2.9,7.4 .3,5.8 -.1,2.1"
       id="path360" />
    <path
       class="mn-sd"
       d="m 473.6,182 .2,-39.5 -1.5,-1.9 -2.6,-.6 -.4,-1.8 -1.7,-2.5 .3,-1.2 3.1,-1.9 .9,-2 .1,-2.2"
       id="path362" />
    <path
       class="mn-wi"
       d="m 556.7,180.4 -1.1,-4.5 -.2,-3 -2.2,-3 -2.8,-.7 -5.2,-3.6 -.6,-3.3 -6.3,-3.1 -.2,-1.3 -3.3,0 -2.2,-2.6 -2,-1.3 .7,-5.1 -.9,-1.6 .5,-5.4 1,-1.8 -.3,-2.7 -1.2,-1.3 -1.8,-.3 v -1.7 l 2.8,-5.8 5.9,-3.9 -.4,-13 .9,.4 .6,-.5 .1,-1.1 .9,-.6 1.4,1.2 .7,-.1"
       id="path364" />
    <path
       class="mo-ne"
       d="m 491.5,259.5 -3.9,-6.3 -2.1,-3.7 .3,-1.4 -1.3,-1.3"
       id="path366" />
    <path
       class="mo-ok"
       d="m 504.3,326.3 .2,10.8"
       id="path368" />
    <path
       class="mo-tn"
       d="m 591.7,344.9 1,-2 1.2,-.5 v -.7 l -1.2,-1.1 -.6,-1 1.7,.2 .8,-.7 -1.4,-1.5 1.4,-.5 .1,-1 -.6,-1 0,-1.3 m 1,0 .8,.7 .8,-1"
       id="path370" />
    <path
       class="ms-tn"
       d="m 582.6,367.7 38.3,-2.6"
       id="path372" />
    <path
       class="mt-nd"
       d="m 362.5,56.3 -5.2,66.7"
       id="path374" />
    <path
       class="mt-sd"
       d="m 357.3,123 -2,20.7"
       id="path376" />
    <path
       class="mt-wy"
       d="m 355.3,143.7 -51,-5.3 -57.3,-7.9 -2,10.7"
       id="path378" />
    <path
       class="nc-sc"
       d="m 710.9,355.2 4.4,-1.9 1.3,-.1 7.3,-4.3 23.2,-2.2 .4,.5 -.2,1.4 .7,.3 1.2,-1.5 3.3,3 .1,2.6 19.7,-2.8 24.5,17.1"
       id="path380" />
    <path
       class="nc-tn"
       d="m 731.1,317 0,5.2 -1.5,-.1 -1.4,1.2 -2.4,5.2 -2.6,-1.1 -3.5,2.5 -.7,2.1 -1.5,1.2 -.8,-.8 -.1,-1.5 -.8,-.2 -4,3.3 -.6,3.4 -4.7,2.4 -.5,1.2 -3.2,2.6 -3.6,.5 -4.6,3 -.8,4.1 -1.3,.9 -1.5,-.1 -1.4,1.3 -.1,4.9"
       id="path382" />
    <path
       class="nc-va"
       d="m 731.1,317 29.4,-3.5 39.4,-7.3 29.1,-6.1"
       id="path384" />
    <path
       class="nd-sd"
       d="m 357.3,123 39.2,2.9 46,2.1 29.5,.4"
       id="path386" />
    <path
       class="ne-sd"
       d="m 351.4,187.6 51.1,3.5 38,1.6 3.4,3.2 1.7,.2 2.1,2 1.8,-.1 1.8,-2 1.5,.6 1,-.7 .7,.5 .9,-.4 .7,.4 .9,-.4 1,.5 1.4,-.6 2,.6 .6,1.1 6.1,2.2 1.2,1.3 .9,2.6 1.8,.7 1.5,-.2"
       id="path388" />
    <path
       class="ne-wy"
       d="m 347.7,231.8 3.7,-44.2"
       id="path390" />
    <path
       class="nh-vt"
       d="m 857.9,100.1 1.2,2.3 -1.1,3.5 2.1,2.8 -.4,1.7 .1,1.3 -1.1,2.1 -1.4,.4 -.6,1.3 -2.1,1 -.7,1.5 1.4,3.4 -.5,2.5 .5,1.5 -1,1.9 .4,1.9 -1.3,1.9 .2,2.2 -.7,1.1 .7,4.5 .7,1.5 -.5,2.6 .9,1.8 -.2,2.5 -.5,1.3 -.1,1.4 2.1,2.6"
       id="path392" />
    <path
       class="nj-ny"
       d="m 827.9,190.5 14.6,4.9 -.4,5.9"
       id="path394" />
    <path
       class="nj-pa"
       d="m 823.8,227.2 1.4,-1.7 1.6,-.6 1.8,-3 1.6,-2.3 3.3,-2.6 -4.2,-3.2 -2.1,-1.1 -1,-2.8 -2.7,-.9 -.5,-3.6 1,-1 .7,-2 -1.5,-1.8 3,-5.4 -.1,-2.2 1.8,-2.5"
       id="path396" />
    <path
       class="nm-ok"
       d="m 358.1,322.3 -.6,10.6"
       id="path398" />
    <path
       class="nm-tx"
       d="m 284.3,431.2 -2,-2.2 .3,-3 34.4,3.6 31.8,2.6 7.9,-99.3 .8,0"
       id="path400" />
    <path
       class="nv-or"
       d="m 93.9,166.5 47,11.2"
       id="path402" />
    <path
       class="nv-ut"
       d="m 188.6,187.8 -21,109"
       id="path404" />
    <path
       class="ny-pa"
       d="m 827.9,190.5 -1.6,-1.1 -1.9,.3 -3,-2.2 -3,-5.8 h -2 l -.4,-1.5 -1.7,-1.1 -70.5,13.9 -.8,-6"
       id="path406" />
    <path
       class="ny-vt"
       d="m 843.6,155.3 -1.1,-1 .5,-2 -3,-14.2 -1.9,-1.5 -.9,1.6 -.9,-2.2 .8,-1.8 -3.1,-6.7 .3,-3.8 .4,-1 -.6,-2 .4,-2.2 -2.2,-2.3 -.5,-3.2 .4,-1.5 -1.4,-.9 .6,-1.9 -.8,-1.7"
       id="path408" />
    <path
       class="oh-pa"
       d="m 736.8,225.1 -4.9,-29.9"
       id="path410" />
    <path
       class="oh-wv"
       d="m 709.3,279.4 3.2,-1.4 h 1.5 l .4,-3.5 1.5,-.8 -1.3,-3.6 1.1,-1.3 .3,-2.2 1,-2.3 1.6,.5 .6,2.1 1,-.5 .7,-.8 1,-.2 v -1.9 l -1.4,-1.1 1,-.5 -.1,-2.1 1.3,-2.2 h 1.3 l .3,-1.2 1.5,-1.8 1.3,1.2 1.8,-1.7 h .6 l 1.8,-2 2,-3.3 1.1,-.5 .4,-2.2 -.5,-1.1 1,-3.6 .1,-5.4 1.1,-3.4 -.6,-2 .1,-2.2 -1.4,-2.1 2.2,-1.2"
       id="path412" />
    <path
       class="ok-tx"
       d="m 357.5,332.9 52.6,3.2 -1.4,42.7 2.7,1.3 2.5,3 1.5,.3 1.1,-1 1.2,.4 1.4,1 1.1,-1.5 2.3,1.7 .5,2.9 1.2,.7 2.3,-.1 3.5,1.9 2,-.1 1.4,-.4 2.3,2.2 2,-2.3 3.5,1.1 1.9,3 2.3,-.1 -.7,2.1 2.3,1.1 3,-2.6 2.6,1.7 1.3,-.5 .1,1.5 1.7,1.2 2.3,-2.5 1.2,.7 -.3,2 1,1.8 1.2,-.8 2.5,-4.2 1.8,2 2,.5 2.1,-.7 2,1.8 1.2,-.1 1.3,1.2 3.6,-.9 .6,-1.7 3.7,-.3 1.6,.7 5,-2.5 .6,1.5 5.1,-.3 .5,-1.6 2.2,.9 4.6,3.8 6.4,1.9"
       id="path414" />
    <path
       class="or-wa"
       d="m 161.5,91.9 -30.3,-7.3 -2.8,1 -5.4,-.9 -1.8,-.9 -1.5,1.2 -3.3,-.4 -4.5,.5 -.9,.7 -4.2,-.4 -.8,-1.6 -1.2,-.2 -4.4,1.3 -1.6,-1.1 -2.2,.8 -.2,-1.8 -2.3,-1.2 -1.5,-.2 -1,-1.1 -3,.3 -1.2,-.8 h -1.2 l -1.2,.9 -5.5,.7 -6.6,-4.2 1.1,-5.6 -.4,-4.1 -3.2,-3.7 -3.7,.1 -.4,-1.1 .4,-1.2 -.7,-.8 -1,.1"
       id="path416" />
    <path
       class="pa-wv"
       d="m 736.8,225.1 3.2,19.7 17.4,-2.9"
       id="path418" />
    <path
       class="sd-wy"
       d="m 351.4,187.6 3.9,-43.9"
       id="path420" />
    <path
       class="tn-va"
       d="m 697.7,321.1 28.9,-3.3 .2,-1 4.6,-.5 -.3,.7"
       id="path422" />
    <path
       class="ut-wy"
       d="m 236.5,196 -3.3,21.9 32.1,4.8"
       id="path424" />
    <path
       class="va-wv"
       d="m 722.7,296.9 .7,.6 -.8,1.2 1.5,.7 .1,1.5 4.4,2.3 2.3,-.1 1.9,-1.8 .8,-1.7 3,1.8 5.5,-2.4 .5,-.9 -.8,-.5 .6,-1.4 1.5,1 4.3,-3.1 .7,1.1 2.3,-2 -.1,-1.4 1.5,-1.9 -1.5,-1.2 1,-3.3 3.7,-6.3 -.4,-1.9 2.1,-2.2 -.4,-1.5 1.4,-1.7 .1,-4.7 2.3,.7 1.3,1.9 2.8,.5 1.3,-1.6 2.3,-8.5 2.4,1.1 1,-2.5 .9,-.8 1.4,-1.8 .9,-.8 .5,-2.1 1.2,-.8 -.1,-2.9 .8,-2.3 -.9,-1.6 .2,-.9 10,5.2 .5,-2.3 .4,-1.6 .4,-.7"
       id="path426" />
  </g>
  <circle
     class="state borders dccircle dc"
     cx="801.6"
     cy="252.1"
     r="5"
     id="circle432">
    <title
       id="title430">District of Columbia</title>
  </circle>
  <path
     style="fill:#000000;marker-start:url(#RoundedArrow);marker-end:url(#TriangleStart);stroke-width:1.6;stroke-dasharray:none"
     d="M 57.876078,242.3325 788.85461,284.52024"
     id="path607" />
  <text
     xml:space="preserve"
     id="text3413"
     style="white-space:pre;shape-inside:url(#rect3415);display:inline;fill:#800000;stroke:#800000;stroke-width:1;stroke-dasharray:none;stroke-opacity:1" />
  <text
     xml:space="preserve"
     style="font-size:29.3333px;fill:#000080;stroke:#000080;stroke-width:0.9;stroke-dasharray:none;stroke-opacity:1"
     x="546.31421"
     y="321.06192"
     id="text3473"><tspan
       sodipodi:role="line"
       id="tspan3471"
       x="546.31421"
       y="321.06192"
       style="font-size:29.3333px;fill:#000080;stroke:#000080">The Internet</tspan></text>
  <text
     xml:space="preserve"
     style="font-size:24px;fill:#800000;stroke:#800000;stroke-width:0.9;stroke-dasharray:none;stroke-opacity:1"
     x="210.53831"
     y="70.168953"
     id="text4038"
     inkscape:transform-center-x="1.0099936"
     inkscape:transform-center-y="0.49794601"><tspan
       sodipodi:role="line"
       id="tspan4036"
       x="210.53831"
       y="70.168953"
       style="font-size:24px;fill:#800080;stroke:#ff00ff">User 1</tspan></text>
  <text
     xml:space="preserve"
     style="font-size:24px;fill:#800000;stroke:#800000;stroke-width:0.9;stroke-dasharray:none;stroke-opacity:1"
     x="498.68369"
     y="154.50177"
     id="text4066"><tspan
       sodipodi:role="line"
       id="tspan4064"
       x="498.68369"
       y="154.50177"
       style="font-size:24px;fill:#800080;stroke:#ff00ff">User 2</tspan></text>
  <text
     xml:space="preserve"
     style="font-size:24px;fill:#800000;stroke:#800000;stroke-width:0.9;stroke-dasharray:none;stroke-opacity:1"
     x="388.3233"
     y="430.49548"
     id="text4094"><tspan
       sodipodi:role="line"
       id="tspan4092"
       x="388.3233"
       y="430.49548"
       style="font-size:24px;fill:#800080;stroke:#ff00ff">Cloudflare</tspan></text>
  <text
     xml:space="preserve"
     style="font-size:24px;fill:#800000;stroke:#800000;stroke-width:0.9;stroke-dasharray:none;stroke-opacity:1"
     x="25.550552"
     y="185.00662"
     id="text4122"><tspan
       sodipodi:role="line"
       id="tspan4120"
       x="25.550552"
       y="185.00662"
       style="font-size:24px;fill:#800080;stroke:#ff00ff">Google</tspan></text>
  <text
     xml:space="preserve"
     style="font-size:16px;fill:#800000;stroke:#000080;stroke-width:0.9;stroke-dasharray:none;stroke-opacity:1"
     x="51.265766"
     y="207.347"
     id="text4924"><tspan
       sodipodi:role="line"
       id="tspan4922"
       x="51.265766"
       y="207.347"
       style="font-size:16px;fill:#ff00ff;stroke:#800080">IP v4: 172.217.4.46</tspan><tspan
       sodipodi:role="line"
       x="51.265766"
       y="227.347"
       id="tspan4950"
       style="font-size:16px;fill:#ff00ff;stroke:#800080">IP v6: 2607:f8b0:808::200e</tspan></text>
  <path
     style="fill:none;stroke:#800080;stroke-width:3.81827;stroke-dasharray:none;stroke-opacity:1;marker-start:url(#Dot)"
     d="m 35.611924,202.6097 5.326666,48.97516"
     id="path5833"
     sodipodi:nodetypes="cc" />
  <path
     style="fill:none;stroke:#800080;stroke-width:4;stroke-dasharray:none;stroke-opacity:1;marker-end:url(#Dot)"
     d="M 274.53357,279.57025 C 261.44627,189.17753 227.38991,84.282587 227.38991,84.282587"
     id="path6215"
     sodipodi:nodetypes="cc" />
  <path
     style="fill:none;stroke:#800080;stroke-width:4;stroke-dasharray:none;stroke-opacity:1;marker-end:url(#Dot)"
     d="m 527.93774,288.40052 c -1.52641,-57.19634 5.79797,-119.31157 5.79797,-119.31157"
     id="path6597"
     sodipodi:nodetypes="cc" />
  <path
     style="fill:none;stroke:#800080;stroke-width:4;stroke-dasharray:none;stroke-opacity:1;marker-end:url(#Dot-3)"
     d="m 775.89929,278.56475 c -7.24608,52.87084 -53.47293,117.65743 -53.47293,117.65743"
     id="path6597-7"
     sodipodi:nodetypes="cc" />
  <path
     style="fill:none;stroke:#800080;stroke-width:4;stroke-dasharray:none;stroke-opacity:1;marker-end:url(#Dot)"
     d="m 368.08969,283.84988 c -13.9662,105.15278 15.30455,162.58898 15.30455,162.58898"
     id="path6729"
     sodipodi:nodetypes="cc" />
  <text
     xml:space="preserve"
     style="font-size:16px;fill:none;stroke:#800000;stroke-width:1;stroke-dasharray:none;stroke-opacity:1"
     x="401.17978"
     y="451.05795"
     id="text6881"><tspan
       sodipodi:role="line"
       id="tspan6879"
       x="401.17978"
       y="451.05795"
       style="font-size:16px;fill:#ff00ff;stroke:#800080">IP v4: 104.16.133.229</tspan><tspan
       sodipodi:role="line"
       x="401.17978"
       y="471.05795"
       id="tspan8485"
       style="font-size:16px;fill:#ff00ff;stroke:#800080">IP v6: 2606:4700::6810:85e5</tspan></text>
  <text
     xml:space="preserve"
     style="font-size:16px;fill:none;stroke:#800000;stroke-width:1;stroke-dasharray:none;stroke-opacity:1"
     x="251.32945"
     y="93.003105"
     id="text9277"><tspan
       sodipodi:role="line"
       id="tspan9275"
       x="251.32945"
       y="93.003105"
       style="font-size:16px;fill:#ff00ff;stroke:#800080">IP v4: 1.2.3.4</tspan><tspan
       sodipodi:role="line"
       x="251.32945"
       y="113.00311"
       id="tspan9309"
       style="font-size:16px;fill:#ff00ff;stroke:#800080">IP v6: 2001:470:38f:3::4</tspan><tspan
       sodipodi:role="line"
       x="251.32945"
       y="133.00311"
       id="tspan10097"
       style="font-size:16px;fill:#ff00ff;stroke:#800080" /></text>
  <text
     xml:space="preserve"
     style="font-size:24px;fill:#800000;stroke:#800000;stroke-width:1;stroke-dasharray:none;stroke-opacity:1"
     x="672.51959"
     y="425.66287"
     id="text10105"><tspan
       sodipodi:role="line"
       id="tspan10103"
       x="672.51959"
       y="425.66287"
       style="fill:#800080;stroke:#ff00ff">GitHub</tspan></text>
  <path
     style="fill:none;stroke:#000080;stroke-width:5;stroke-dasharray:none;stroke-opacity:1;marker-start:url(#marker3693);marker-end:url(#Arrow1)"
     d="M 4.3971004,243.98911 C 411.77982,320.02849 869.30063,270.56928 869.30063,270.56928"
     id="path1925"
     sodipodi:nodetypes="cc" />
</svg>
